<svg width="24" height="24" viewBox="0 0 24 24" fill="none" xmlns="http://www.w3.org/2000/svg">
<path d="M21.625 3.05767L16.1202 3.05769V1.6875C16.1202 1.30766 15.8125 1 15.4327 1C15.0528 1 14.7452 1.30766 14.7452 1.6875V3.05734H9.24519V1.6875C9.24519 1.30766 8.93753 1 8.55769 1C8.17784 1 7.87019 1.30766 7.87019 1.6875V3.05734H2.375C1.61566 3.05734 1 3.673 1 4.43234V21.6198C1 22.3792 1.61566 22.9948 2.375 22.9948H21.625C22.3843 22.9948 23 22.3792 23 21.6198V4.43234C23 3.67332 22.3843 3.05767 21.625 3.05767ZM21.625 21.6198H2.375V4.43234H7.87019V5.125C7.87019 5.50482 8.17784 5.8125 8.55769 5.8125C8.93753 5.8125 9.24519 5.50482 9.24519 5.125V4.43269H14.7452V5.12534C14.7452 5.50519 15.0528 5.81284 15.4327 5.81284C15.8125 5.81284 16.1202 5.50519 16.1202 5.12534V4.43269H21.625V21.6198ZM16.8125 11.9952H18.1875C18.567 11.9952 18.875 11.6872 18.875 11.3077V9.93267C18.875 9.55317 18.567 9.24517 18.1875 9.24517H16.8125C16.433 9.24517 16.125 9.55317 16.125 9.93267V11.3077C16.125 11.6872 16.433 11.9952 16.8125 11.9952ZM16.8125 17.4948H18.1875C18.567 17.4948 18.875 17.1872 18.875 16.8073V15.4323C18.875 15.0528 18.567 14.7448 18.1875 14.7448H16.8125C16.433 14.7448 16.125 15.0528 16.125 15.4323V16.8073C16.125 17.1875 16.433 17.4948 16.8125 17.4948ZM12.6875 14.7448H11.3125C10.933 14.7448 10.625 15.0528 10.625 15.4323V16.8073C10.625 17.1872 10.933 17.4948 11.3125 17.4948H12.6875C13.067 17.4948 13.375 17.1872 13.375 16.8073V15.4323C13.375 15.0532 13.067 14.7448 12.6875 14.7448ZM12.6875 9.24517H11.3125C10.933 9.24517 10.625 9.55317 10.625 9.93267V11.3077C10.625 11.6872 10.933 11.9952 11.3125 11.9952H12.6875C13.067 11.9952 13.375 11.6872 13.375 11.3077V9.93267C13.375 9.55282 13.067 9.24517 12.6875 9.24517ZM7.1875 9.24517H5.8125C5.433 9.24517 5.125 9.55317 5.125 9.93267V11.3077C5.125 11.6872 5.433 11.9952 5.8125 11.9952H7.1875C7.567 11.9952 7.875 11.6872 7.875 11.3077V9.93267C7.875 9.55282 7.567 9.24517 7.1875 9.24517ZM7.1875 14.7448H5.8125C5.433 14.7448 5.125 15.0528 5.125 15.4323V16.8073C5.125 17.1872 5.433 17.4948 5.8125 17.4948H7.1875C7.567 17.4948 7.875 17.1872 7.875 16.8073V15.4323C7.875 15.0532 7.567 14.7448 7.1875 14.7448Z" fill="white"/>
</svg>
