<svg width="15" height="15" viewBox="0 0 15 15" fill="none" xmlns="http://www.w3.org/2000/svg">
<path fill-rule="evenodd" clip-rule="evenodd" d="M3.70922 4.11523C2.98167 4.11523 2.37669 4.67518 2.32051 5.40056L1.75424 12.7133C1.69158 13.5225 2.3313 14.2137 3.14294 14.2137H11.8489C12.6605 14.2137 13.3003 13.5225 13.2376 12.7133L12.6713 5.40056C12.6152 4.67518 12.0102 4.11523 11.2826 4.11523H3.70922Z" fill="white"/>
<path d="M10.4971 4.46429C10.4971 3.97652 10.413 3.49353 10.2497 3.04289C10.0864 2.59225 9.84696 2.18279 9.54517 1.83789C9.24338 1.49299 8.8851 1.21939 8.4908 1.03273C8.09649 0.846073 7.67387 0.75 7.24707 0.75C6.82028 0.75 6.39766 0.846073 6.00335 1.03273C5.60904 1.21939 5.25076 1.49299 4.94897 1.83789C4.64718 2.18279 4.40779 2.59225 4.24446 3.04289C4.08113 3.49353 3.99707 3.97652 3.99707 4.46429H4.81073C4.81073 4.09864 4.87375 3.73657 4.99619 3.39875C5.11863 3.06093 5.29809 2.75398 5.52432 2.49543C5.75056 2.23688 6.01914 2.03178 6.31473 1.89185C6.61032 1.75192 6.92713 1.6799 7.24707 1.6799C7.56702 1.6799 7.88383 1.75192 8.17942 1.89185C8.47501 2.03178 8.74359 2.23688 8.96983 2.49543C9.19606 2.75398 9.37552 3.06093 9.49796 3.39875C9.62039 3.73657 9.68341 4.09864 9.68341 4.46429H10.4971Z" fill="white"/>
<path fill-rule="evenodd" clip-rule="evenodd" d="M9.68341 4.46429C9.68341 4.09864 9.62039 3.73657 9.49796 3.39875C9.37552 3.06093 9.19606 2.75398 8.96983 2.49543C8.74359 2.23688 8.47501 2.03178 8.17942 1.89185C7.88383 1.75192 7.56702 1.6799 7.24707 1.6799C6.92713 1.6799 6.61032 1.75192 6.31473 1.89185C6.01914 2.03178 5.75056 2.23688 5.52432 2.49543C5.29809 2.75398 5.11863 3.06093 4.99619 3.39875C4.87375 3.73657 4.81073 4.09864 4.81073 4.46429H3.99707C3.99707 4.21701 4.01868 3.97095 4.06126 3.72972C4.10268 3.49512 4.16394 3.26507 4.24446 3.04289C4.40779 2.59225 4.64718 2.18279 4.94897 1.83789C5.25076 1.49299 5.60904 1.21939 6.00335 1.03273C6.39766 0.846073 6.82028 0.75 7.24707 0.75C7.67387 0.75 8.09649 0.846073 8.4908 1.03273C8.8851 1.21939 9.24338 1.49299 9.54517 1.83789C9.84696 2.18279 10.0864 2.59225 10.2497 3.04289C10.3302 3.26507 10.3915 3.49512 10.4329 3.72972C10.4755 3.97095 10.4971 4.21701 10.4971 4.46429H9.68341Z" fill="white"/>
</svg>
