<svg width="15" height="15" viewBox="0 0 15 15" fill="none" xmlns="http://www.w3.org/2000/svg">
<path d="M5.95536e-08 5.2005C-9.22365e-05 4.64237 0.107097 4.08982 0.315302 3.57515C0.523508 3.06047 0.828553 2.59399 1.21261 2.20297C1.59667 1.81195 2.05203 1.50423 2.55209 1.29781C3.05215 1.09138 3.58687 0.990385 4.125 1.00072C4.76172 0.997214 5.31863 1.05066 5.97374 1.40224C6.72592 1.80592 7.07581 2.50755 7.49997 3C7.92413 2.50755 8.27406 1.80592 9.02626 1.40224C9.68137 1.05067 10.2383 0.997214 10.875 1.00072C11.4131 0.990385 11.9479 1.09138 12.4479 1.29781C12.948 1.50423 13.4033 1.81195 13.7874 2.20297C14.1714 2.59399 14.4765 3.06047 14.6847 3.57515C14.8929 4.08982 15.0001 4.64237 15 5.2005C15 9.36607 10.2157 12.5112 7.5 15C4.79025 12.4902 5.95536e-08 9.36918 5.95536e-08 5.2005Z" fill="white"/>
</svg>
