<svg width="10" height="10" viewBox="0 0 10 10" fill="none" xmlns="http://www.w3.org/2000/svg">
<g clip-path="url(#clip0_3702_41)">
<path d="M4.99805 9.37134C3.83818 9.37134 2.72581 8.91058 1.90566 8.09043C1.08551 7.27028 0.624756 6.15792 0.624756 4.99805C0.624756 3.83818 1.08551 2.72581 1.90566 1.90566C2.72581 1.08551 3.83818 0.624756 4.99805 0.624756C6.15792 0.624756 7.27028 1.08551 8.09043 1.90566C8.91058 2.72581 9.37134 3.83818 9.37134 4.99805C9.37134 6.15792 8.91058 7.27028 8.09043 8.09043C7.27028 8.91058 6.15792 9.37134 4.99805 9.37134ZM4.99805 9.99609C6.32361 9.99609 7.59488 9.46952 8.5322 8.5322C9.46952 7.59488 9.99609 6.32361 9.99609 4.99805C9.99609 3.67248 9.46952 2.40121 8.5322 1.46389C7.59488 0.526579 6.32361 0 4.99805 0C3.67248 0 2.40121 0.526579 1.46389 1.46389C0.526579 2.40121 0 3.67248 0 4.99805C0 6.32361 0.526579 7.59488 1.46389 8.5322C2.40121 9.46952 3.67248 9.99609 4.99805 9.99609V9.99609Z" fill="white"/>
<path d="M5.58063 4.11675L4.14994 4.29605L4.09871 4.53346L4.37985 4.58531C4.56352 4.62905 4.59976 4.69527 4.55978 4.87832L4.09871 7.04498C3.9775 7.60538 4.16431 7.86903 4.60351 7.86903C4.944 7.86903 5.33947 7.71159 5.51878 7.49543L5.57375 7.23553C5.4488 7.34548 5.26637 7.38922 5.14517 7.38922C4.97336 7.38922 4.91089 7.26864 4.95525 7.05622L5.58063 4.11675ZM5.62436 2.81226C5.62436 2.97795 5.55854 3.13686 5.44137 3.25402C5.32421 3.37119 5.1653 3.43701 4.9996 3.43701C4.83391 3.43701 4.675 3.37119 4.55783 3.25402C4.44067 3.13686 4.37485 2.97795 4.37485 2.81226C4.37485 2.64656 4.44067 2.48765 4.55783 2.37049C4.675 2.25332 4.83391 2.1875 4.9996 2.1875C5.1653 2.1875 5.32421 2.25332 5.44137 2.37049C5.55854 2.48765 5.62436 2.64656 5.62436 2.81226Z" fill="white"/>
</g>
<defs>
<clipPath id="clip0_3702_41">
<rect width="10" height="10" fill="white"/>
</clipPath>
</defs>
</svg>
