<svg width="52" height="32" viewBox="0 0 52 32" fill="none" xmlns="http://www.w3.org/2000/svg">
<g clip-path="url(#clip0_1504_3077)">
<path fill-rule="evenodd" clip-rule="evenodd" d="M18.752 28.538H32.6522V3.41602H18.752V28.538Z" fill="#FF5F00"/>
<path fill-rule="evenodd" clip-rule="evenodd" d="M19.6347 15.9769C19.6347 10.8803 22.0074 6.34107 25.7023 3.41596C22.9999 1.27638 19.5906 0 15.8847 0C7.11164 0 0 7.15323 0 15.9769C0 24.8007 7.11164 31.9539 15.8847 31.9539C19.5906 31.9539 22.9999 30.6775 25.7023 28.5379C22.0074 25.6124 19.6347 21.0736 19.6347 15.9769Z" fill="#EB001B"/>
<path fill-rule="evenodd" clip-rule="evenodd" d="M50.9094 25.8773V25.2573H50.7483L50.5634 25.6838L50.3781 25.2573H50.217V25.8773H50.3304V25.4096L50.5043 25.813H50.6221L50.796 25.4087V25.8773H50.9094ZM49.8896 25.8773V25.363H50.0961V25.2582H49.571V25.363H49.7771V25.8773H49.8896ZM51.4054 15.9769C51.4054 24.8007 44.2933 31.9539 35.5207 31.9539C31.8148 31.9539 28.4051 30.6775 25.7031 28.5379C29.3979 25.6128 31.7707 21.0736 31.7707 15.9769C31.7707 10.8807 29.3979 6.34152 25.7031 3.41596C28.4051 1.27638 31.8148 0 35.5207 0C44.2933 0 51.4054 7.15323 51.4054 15.9769Z" fill="#F79E1B"/>
</g>
<defs>
<clipPath id="clip0_1504_3077">
<rect width="51.9359" height="32" fill="white"/>
</clipPath>
</defs>
</svg>
