<svg width="53" height="32" viewBox="0 0 53 32" fill="none" xmlns="http://www.w3.org/2000/svg">
<path d="M33.7556 28.5811H19.7754V3.41797H33.7556V28.5811Z" fill="#6C6BBD"/>
<path d="M20.6644 16C20.6644 10.9027 23.0483 6.35145 26.7656 3.41846C24.0383 1.27434 20.624 0 16.8865 0C8.05798 0 0.90625 7.16056 0.90625 16C0.90625 24.8394 8.05798 32 16.8865 32C20.624 32 24.0383 30.7257 26.7656 28.5815C23.0483 25.6485 20.6644 21.1176 20.6644 16Z" fill="#D32011"/>
<path d="M52.625 16C52.625 24.8394 45.4733 32 36.6447 32C32.9072 32 29.493 30.7257 26.7656 28.5815C30.4829 25.6485 32.8668 21.0973 32.8668 16C32.8668 10.9027 30.4829 6.35145 26.7656 3.41846C29.493 1.27434 32.9072 0 36.6447 0C45.4733 0 52.625 7.16056 52.625 16Z" fill="#0099DF"/>
</svg>
