<svg width="90" height="29" viewBox="0 0 90 29" fill="none" xmlns="http://www.w3.org/2000/svg">
<path d="M39.1922 28.4028H31.9512L36.5048 0.449219H43.7459L39.1922 28.4028Z" fill="#005CA9"/>
<path d="M25.8294 0.449219L18.8869 19.658L18.0658 15.5472L15.6023 2.99045C15.6023 2.99045 15.3037 0.449219 12.1684 0.449219H0.746956L0.597656 0.897671C0.597656 0.897671 4.10621 1.64509 8.21197 4.11159L14.5572 28.4028H22.0969L33.6677 0.449219H25.8294V0.449219Z" fill="#005CA9"/>
<path d="M83.0113 28.4028H89.6551L83.8324 0.449219H78.0097C75.3223 0.449219 74.6504 2.542 74.6504 2.542L63.8262 28.4028H71.3658L72.8588 24.2173H82.1155L83.0113 28.4028ZM75.0237 18.4621L78.8309 7.99819L80.9957 18.4621H75.0237Z" fill="#005CA9"/>
<path d="M64.348 7.17526L65.3931 1.19588C65.3931 1.19588 62.1832 0 58.8239 0C55.2407 0 46.6559 1.56959 46.6559 9.26804C46.6559 16.518 56.7337 16.5928 56.7337 20.4046C56.7337 24.2165 47.701 23.5438 44.715 21.1521L43.6699 27.4304C43.6699 27.4304 46.8799 29 51.8814 29C56.8084 29 64.348 26.4588 64.348 19.433C64.348 12.183 54.1956 11.5103 54.1956 8.29639C54.1956 5.00773 61.2874 5.45619 64.348 7.17526Z" fill="#005CA9"/>
</svg>
