<svg width="105" height="29" viewBox="0 0 105 29" fill="none" xmlns="http://www.w3.org/2000/svg">
<g clip-path="url(#clip0_1504_3074)">
<path d="M23.2512 3.80625L19.4103 17.1281H18.7532L14.9122 3.80625C14.2551 1.55195 12.193 0 9.83636 0H0.625V29H9.84769V11.8605H10.5049L15.7847 29H22.3788L27.6473 11.8605H28.3044V29H37.5272V0H28.3158C25.9704 0 23.9084 1.55195 23.2512 3.80625ZM74.3158 29H83.5952V20.4246H92.9315C97.8146 20.4246 101.973 17.6605 103.582 13.775H74.3158V29ZM57.876 3.05859L51.3839 17.1395H50.7267V0H41.504V29H49.3331C51.3952 29 53.2644 27.7992 54.1256 25.9414L60.6177 11.8719H61.2751V29H70.4977V0H62.6685C60.6064 0 58.7371 1.20078 57.876 3.05859Z" fill="#006848"/>
<path d="M93.8484 0C96.511 0 98.9243 1.01953 100.748 2.69609C102.788 4.55391 104.068 7.22737 104.068 10.2067C104.068 10.8183 104 11.4187 103.898 12.0078H86.7671C80.9661 12.0078 76.0488 8.20156 74.3946 2.94531C74.372 2.88867 74.3606 2.8207 74.338 2.75273C74.2926 2.59414 74.2587 2.42422 74.2133 2.26562C74.0434 1.52929 73.9301 0.781638 73.8848 0H93.8484Z" fill="url(#paint0_linear_1504_3074)"/>
</g>
<defs>
<linearGradient id="paint0_linear_1504_3074" x1="104.068" y1="37.5546" x2="74.0695" y2="37.5546" gradientUnits="userSpaceOnUse">
<stop stop-color="#1E5CD8"/>
<stop offset="1" stop-color="#02AFFF"/>
</linearGradient>
<clipPath id="clip0_1504_3074">
<rect width="103.444" height="29" fill="white" transform="translate(0.625)"/>
</clipPath>
</defs>
</svg>
