<svg width="16" height="16" viewBox="0 0 16 16" fill="none" xmlns="http://www.w3.org/2000/svg">
<path d="M15.9993 7.999V7.995C15.9993 5.62777 14.9687 3.50186 13.3321 2.03993L13.3241 2.03326C13.3039 2.01147 13.2813 1.99202 13.2568 1.97526L13.2554 1.9746C11.8019 0.698338 9.93264 -0.0037543 7.99832 1.50994e-05C5.97708 1.50994e-05 4.13182 0.750649 2.72522 1.98926L2.73388 1.98193C2.71693 1.99479 2.7013 2.0093 2.68722 2.02526V2.02593C1.84161 2.77469 1.16475 3.69458 0.701477 4.72467C0.238207 5.75476 -0.000897887 6.87153 2.53367e-06 8.001C2.53367e-06 10.3676 1.02929 12.4935 2.66455 13.9561L2.67255 13.9627C2.69373 13.9868 2.71742 14.0084 2.74322 14.0274L2.74455 14.0281C4.19771 15.3024 6.06553 16.0035 7.99832 16C9.94015 16.003 11.816 15.2954 13.2721 14.0107L13.2634 14.0181C14.1237 13.2701 14.8133 12.3462 15.2855 11.3086C15.7577 10.2711 16.0016 9.14427 16.0006 8.00433V7.99967L15.9993 7.999ZM13.0248 13.2021C12.6285 12.8816 12.2023 12.5998 11.7522 12.3608L11.7088 12.3395C12.1175 11.1615 12.3635 9.80359 12.3868 8.39098V8.38032H15.2273C15.1315 10.2078 14.3449 11.9307 13.0268 13.2001L13.0248 13.2021ZM8.38097 12.1988C9.23627 12.2448 10.0356 12.4328 10.7729 12.7388L10.7249 12.7215C10.1342 14.0681 9.30293 14.9934 8.38097 15.1967V12.1988ZM8.38097 11.4362V8.38032H11.6262C11.6004 9.64577 11.381 10.8998 10.9755 12.0988L11.0015 12.0115C10.1739 11.6713 9.29358 11.4769 8.39964 11.4369L8.38164 11.4362H8.38097ZM8.38097 7.61768V4.56182C9.29904 4.51992 10.2029 4.31894 11.0522 3.96784L10.9995 3.98717C11.3695 5.06646 11.5968 6.31041 11.6262 7.60368V7.61768H8.38097ZM8.38097 3.79918V0.802647C9.30293 1.00597 10.1342 1.92726 10.7249 3.27787C10.0356 3.56453 9.23627 3.75185 8.4003 3.79852L8.38097 3.79918ZM10.2836 1.13263C11.0691 1.39464 11.8038 1.78971 12.4555 2.30058L12.4401 2.28858C12.1448 2.52057 11.8135 2.73923 11.4642 2.92922L11.4268 2.94789C11.1446 2.28173 10.7565 1.66559 10.2776 1.1233L10.2836 1.13063V1.13263ZM7.617 0.804647V3.79918C6.7947 3.75723 5.98568 3.5746 5.22511 3.25921L5.27311 3.27654C5.86641 1.92993 6.69638 1.0053 7.61834 0.80198L7.617 0.804647ZM4.5718 2.94589C4.21044 2.75147 3.86612 2.5269 3.54252 2.27458L3.55851 2.28658C4.19124 1.79071 4.90293 1.40489 5.66376 1.1453L5.71442 1.12997C5.24805 1.65757 4.86804 2.25559 4.58847 2.90189L4.5718 2.94522V2.94589ZM7.61834 4.56115V7.61702H4.37315C4.40248 6.30974 4.6298 5.06579 5.02578 3.89918L4.99978 3.98651C5.82712 4.32614 6.70691 4.52032 7.60034 4.56048L7.61834 4.56115ZM7.61834 8.37965V11.4355C6.70027 11.4774 5.79644 11.6784 4.94712 12.0295L4.99978 12.0102C4.6298 10.9315 4.40248 9.68693 4.37315 8.39365V8.37965H7.61834ZM7.61834 12.1982V15.1947C6.69638 14.9914 5.86508 14.0701 5.27444 12.7195C5.96374 12.4328 6.76304 12.2462 7.59901 12.1995L7.61834 12.1988V12.1982ZM5.71842 14.8647C4.93309 14.6035 4.19845 14.2093 3.54651 13.6994L3.56251 13.7114C3.85783 13.4794 4.18915 13.2608 4.53847 13.0708L4.5758 13.0521C4.85571 13.7185 5.24381 14.3341 5.72442 14.874L5.71842 14.8674V14.8647ZM11.4275 13.0514C11.8142 13.2614 12.1455 13.4794 12.4568 13.7228L12.4408 13.7108C11.8081 14.2066 11.0964 14.5924 10.3356 14.852L10.2849 14.8674C10.7513 14.34 11.1313 13.7422 11.4108 13.0961L11.4275 13.0528V13.0514ZM15.2273 7.61768H12.3868C12.3664 6.23838 12.1283 4.87094 11.6815 3.56586L11.7088 3.65786C12.1797 3.40991 12.6256 3.117 13.0401 2.78323L13.0241 2.79523C14.3396 4.05986 15.1264 5.77632 15.226 7.59835L15.2267 7.61702L15.2273 7.61768ZM2.97454 2.79589C3.35852 3.10788 3.78984 3.39387 4.24715 3.63719L4.29048 3.65852C3.88183 4.83647 3.63584 6.19441 3.61251 7.60702V7.61768H0.771302C0.867093 5.79016 1.6537 4.06731 2.97187 2.79789L2.97387 2.79589H2.97454ZM0.771969 8.38032H3.61251C3.63295 9.75962 3.87098 11.1271 4.31781 12.4321L4.29048 12.3401C3.78984 12.6061 3.35919 12.8921 2.95921 13.2148L2.97521 13.2028C1.65975 11.9381 0.872874 10.2217 0.773302 8.39965L0.772636 8.38098L0.771969 8.38032Z" fill="#1E1D1D"/>
</svg>
