<svg width="440" height="261" viewBox="0 0 440 261" fill="none" xmlns="http://www.w3.org/2000/svg">
<rect width="440" height="261" fill="#1E1D1D"/>
<path d="M188.801 112.701L187.512 113.371V76.6113H188.801V112.701Z" fill="white"/>
<path d="M205.453 123.941L205.866 122.652L219.941 130.901L219.322 132.036L205.453 123.941Z" fill="white"/>
<path d="M192.926 110.28L191.637 110.744V84.0371L192.926 84.1402V110.28Z" fill="white"/>
<path d="M197.305 108.267L196.016 108.628V86.8711H197.305V108.267Z" fill="white"/>
<path d="M188.44 77.5912L187.512 76.6116L201.277 68.6719L201.896 69.8061L188.44 77.5912Z" fill="white"/>
<path d="M196.892 77.6423L196.016 76.6627L205.244 71.3008L205.915 72.435L196.892 77.6423Z" fill="white"/>
<path d="M201.327 80.1695L200.605 79.1384L205.452 76.3027L206.071 77.437L201.327 80.1695Z" fill="white"/>
<path d="M206.07 118.373L204.781 118.476V112.65L206.07 112.702V118.373Z" fill="white"/>
<path d="M201.797 120.229L200.508 120.332V115.898H201.797V120.229Z" fill="white"/>
<path d="M201.587 120.28L201.071 121.414L187.512 113.371L188.801 112.701L201.587 120.28Z" fill="white"/>
<path d="M201.793 115.331L201.226 116.465L191.637 110.742L192.719 109.969L201.793 115.331Z" fill="white"/>
<path d="M206.071 112.702L205.504 113.836L195.656 107.959L196.739 107.186L206.071 112.702Z" fill="white"/>
<path d="M206.07 71.5075L205.503 72.5902L200.398 69.5483L201.275 68.6719L206.07 71.5075Z" fill="white"/>
<path d="M205.503 117.342L206.071 118.373L201.069 121.415L200.605 120.177L205.503 117.342Z" fill="white"/>
<path d="M205.509 112.393L206.076 113.424L200.92 116.569L200.508 115.331L205.509 112.393Z" fill="white"/>
<path d="M233.086 71.765L231.797 71.8681V66.0938H233.137L233.086 71.765Z" fill="white"/>
<path d="M228.808 73.6726L227.52 73.7757V69.3418H228.808V73.6726Z" fill="white"/>
<path d="M228.654 73.7252L228.086 74.8595L218.445 69.1366L219.528 68.3633L228.654 73.7252Z" fill="white"/>
<path d="M228.811 68.7752L228.243 69.9094L218.293 63.9804L219.324 63.207L228.811 68.7752Z" fill="white"/>
<path d="M233.136 66.0944L232.517 67.2287L218.133 58.6702L219.319 58L233.136 66.0944Z" fill="white"/>
<path d="M232.518 70.7344L233.085 71.8171L228.084 74.8589L227.672 73.6216L232.518 70.7344Z" fill="white"/>
<path d="M232.521 65.7852L233.088 66.8679L227.932 70.0128L227.52 68.7755L232.521 65.7852Z" fill="white"/>
<path d="M210.402 115.178L211.021 116.209L206.174 119.148L205.762 117.91L210.402 115.178Z" fill="white"/>
<path d="M197.048 107.031L197.615 108.114L192.459 111.259L192.047 109.97L197.048 107.031Z" fill="white"/>
<path d="M206.07 87.3869L204.781 87.49V81.6641L206.07 81.7156V87.3869Z" fill="white"/>
<path d="M206.07 77.4376L204.781 77.5407V71.457L206.07 71.5086V77.4376Z" fill="white"/>
<path d="M196.892 108.681L196.016 107.702L205.244 102.34L205.915 103.423L196.892 108.681Z" fill="white"/>
<path d="M197.152 103.318L196.379 102.287L201.122 99.5547L201.792 100.637L197.152 103.318Z" fill="white"/>
<path d="M206.226 98.2652L205.453 97.2341L210.299 94.3984L210.97 95.4811L206.226 98.2652Z" fill="white"/>
<path d="M210.195 100.998L209.422 99.9665L214.268 97.1309L214.938 98.2651L210.195 100.998Z" fill="white"/>
<path d="M210.504 106L209.73 104.968L214.577 102.133L215.196 103.267L210.504 106Z" fill="white"/>
<path d="M232.314 98.1636L233.138 97.1841L228.241 94.2969L227.57 95.4311L232.314 98.1636Z" fill="white"/>
<path d="M228.345 100.896L229.118 99.8649L224.272 97.0293L223.602 98.1635L228.345 100.896Z" fill="white"/>
<path d="M228.084 105.949L228.806 104.918L223.959 102.082L223.289 103.165L228.084 105.949Z" fill="white"/>
<path d="M224.062 119.045L223.289 118.065L228.239 115.178L228.857 116.312L224.062 119.045Z" fill="white"/>
<path d="M201.327 111.207L200.605 110.175L205.452 107.34L206.071 108.423L201.327 111.207Z" fill="white"/>
<path d="M206.072 102.493L205.505 103.628L200.246 100.483L201.123 99.5547L206.072 102.493Z" fill="white"/>
<path d="M233.037 87.0774L232.418 88.2117L227.211 85.0667L228.036 84.1387L233.037 87.0774Z" fill="white"/>
<path d="M233.193 118.116L232.574 119.251L227.367 116.106L228.244 115.178L233.193 118.116Z" fill="white"/>
<path d="M206.07 108.423L204.781 108.526V102.494H206.07V108.423Z" fill="white"/>
<path d="M206.742 123.786L205.453 123.941V117.857H206.742V123.786Z" fill="white"/>
<path d="M201.797 89.2429L200.508 89.346V84.9121H201.797V89.2429Z" fill="white"/>
<path d="M201.639 89.2951L201.072 90.4293L191.637 84.758V83.3145L201.639 89.2951Z" fill="white"/>
<path d="M201.791 84.3453L201.224 85.4796L188.18 77.746L189.314 76.9727L201.791 84.3453Z" fill="white"/>
<path d="M219.992 95.5843L218.703 94.9141V131.519H219.992V95.5843Z" fill="white"/>
<path d="M224.117 98.0089L222.828 97.5449V124.251H224.117V98.0089Z" fill="white"/>
<path d="M232.984 87.4391L231.695 87.3359V92.9556H232.984V87.4391Z" fill="white"/>
<path d="M232.881 87.9546L232.314 86.8203L218.703 94.9147L219.94 95.585L232.881 87.9546Z" fill="white"/>
<path d="M232.985 92.9565L232.418 91.8223L222.828 97.5451L223.911 98.3184L232.985 92.9565Z" fill="white"/>
<path d="M232.933 118.632L231.645 118.58V123.942H232.933V118.632Z" fill="white"/>
<path d="M232.779 118.992L232.211 117.857L222.828 123.529V124.972L232.779 118.992Z" fill="white"/>
<path d="M214.167 118.838L214.889 117.807L210.404 115.178L209.785 116.26L214.167 118.838Z" fill="white"/>
<path d="M214.113 97.7511L215.402 97.2871V123.89H214.113V97.7511Z" fill="white"/>
<path d="M219.992 64.7023L218.703 64.2383V89.9136H219.992V64.7023Z" fill="white"/>
<path d="M224.117 71.5586L222.828 71.3008V87.4381H224.117V71.5586Z" fill="white"/>
<path d="M214.113 71.6101L215.402 71.3008V87.2834H214.113V71.6101Z" fill="white"/>
<path d="M205.25 87.1812L206.539 87.0781V92.6978H205.25V87.1812Z" fill="white"/>
<path d="M205.352 87.6968L205.919 86.5625L219.942 94.9147L218.653 95.585L205.352 87.6968Z" fill="white"/>
<path d="M228.655 85.2729L228.036 84.1387L218.086 90.0162L219.323 90.738L228.655 85.2729Z" fill="white"/>
<path d="M209.938 85.2221L210.505 84.0879L220.404 89.9654L219.321 90.7387L209.938 85.2221Z" fill="white"/>
<path d="M205.25 92.6987L205.817 91.5645L215.407 97.2873L214.324 98.0606L205.25 92.6987Z" fill="white"/>
<path d="M205.609 118.837L206.177 117.703L215.405 123.271V124.715L205.609 118.837Z" fill="white"/>
<path d="M232.931 123.992L232.416 122.807L218.031 131.159L219.32 132.035L232.931 123.992Z" fill="white"/>
<path d="M206.075 81.717L205.508 82.8512L195.609 76.9222L196.795 76.252L206.075 81.717Z" fill="white"/>
<path d="M205.503 86.3555L206.071 87.3866L201.069 90.4285L200.605 89.1911L205.503 86.3555Z" fill="white"/>
<path d="M205.509 81.4062L206.076 82.4374L200.92 85.5824L200.508 84.345L205.509 81.4062Z" fill="white"/>
<path d="M210.507 84.0879L211.074 85.119L206.331 88.0578L205.867 86.8204L210.507 84.0879Z" fill="white"/>
<path d="M249.691 112.701L250.98 113.371V76.6113H249.691V112.701Z" fill="white"/>
<path d="M245.617 110.28L246.906 110.744V84.0371L245.617 84.0887V110.28Z" fill="white"/>
<path d="M241.234 108.216L242.523 108.628V86.8711H241.234V108.216Z" fill="white"/>
<path d="M250.102 77.592L250.978 76.6124L237.264 68.6211L236.594 69.7553L250.102 77.592Z" fill="white"/>
<path d="M241.647 77.6423L242.524 76.6627L233.295 71.3008L232.625 72.435L241.647 77.6423Z" fill="white"/>
<path d="M237.16 80.1695L237.934 79.1384L233.087 76.3027L232.469 77.3854L237.16 80.1695Z" fill="white"/>
<path d="M232.414 118.322L233.703 118.425V112.65H232.414V118.322Z" fill="white"/>
<path d="M236.75 120.229L238.039 120.332V115.898H236.75V120.229Z" fill="white"/>
<path d="M236.953 120.228L237.469 121.414L250.977 113.371L249.739 112.701L236.953 120.228Z" fill="white"/>
<path d="M236.75 115.331L237.317 116.465L246.907 110.742L245.824 109.969L236.75 115.331Z" fill="white"/>
<path d="M232.414 112.649L233.033 113.784L242.88 107.906L241.797 107.133L232.414 112.649Z" fill="white"/>
<path d="M232.414 71.4567L233.033 72.591L238.137 69.5491L237.26 68.6211L232.414 71.4567Z" fill="white"/>
<path d="M233.036 117.291L232.469 118.374L237.47 121.416L237.882 120.178L233.036 117.291Z" fill="white"/>
<path d="M233.036 112.342L232.469 113.424L237.624 116.569L238.037 115.332L233.036 112.342Z" fill="white"/>
<path d="M205.453 71.8685L206.742 71.9716V66.1973H205.453V71.8685Z" fill="white"/>
<path d="M209.73 73.7769L211.071 73.8284V69.3945H209.73V73.7769Z" fill="white"/>
<path d="M209.887 73.7756L210.505 74.9614L220.25 69.0839L219.167 68.3105L209.887 73.7756Z" fill="white"/>
<path d="M209.73 68.8267L210.298 69.961L220.403 63.9804L219.32 63.207L209.73 68.8267Z" fill="white"/>
<path d="M205.453 66.1975L206.02 67.3318L220.508 58.7218L219.322 58L205.453 66.1975Z" fill="white"/>
<path d="M206.02 70.8379L205.453 71.869L210.506 74.9624L210.918 73.6735L206.02 70.8379Z" fill="white"/>
<path d="M206.072 65.8887L205.453 66.9714L210.609 70.0648L211.021 68.8274L206.072 65.8887Z" fill="white"/>
<path d="M233.086 102.855L231.797 102.958V97.1836H233.137L233.086 102.855Z" fill="white"/>
<path d="M228.808 104.763L227.52 104.815V100.381H228.808V104.763Z" fill="white"/>
<path d="M232.518 101.824L233.085 102.855L228.084 105.949L227.672 104.711L232.518 101.824Z" fill="white"/>
<path d="M232.521 96.873L233.088 97.9557L227.932 101.049L227.52 99.8118L232.521 96.873Z" fill="white"/>
<path d="M205.453 102.906L206.742 103.009V97.2344H205.453V102.906Z" fill="white"/>
<path d="M209.73 104.813L211.071 104.916V100.482H209.73V104.813Z" fill="white"/>
<path d="M206.02 101.875L205.453 102.958L210.506 106L210.918 104.762L206.02 101.875Z" fill="white"/>
<path d="M206.072 96.9258L205.453 98.0085L210.609 101.153L211.021 99.9161L206.072 96.9258Z" fill="white"/>
<path d="M241.489 107.031L240.922 108.062L246.078 111.207L246.49 109.97L241.489 107.031Z" fill="white"/>
<path d="M232.414 87.3353L233.703 87.4384V81.6641H232.414V87.3353Z" fill="white"/>
<path d="M232.466 77.3861L233.755 77.4892V71.457H232.414L232.466 77.3861Z" fill="white"/>
<path d="M241.647 108.629L242.524 107.701L233.295 102.287L232.625 103.421L241.647 108.629Z" fill="white"/>
<path d="M241.39 103.319L242.163 102.288L237.42 99.5039L236.75 100.638L241.39 103.319Z" fill="white"/>
<path d="M237.16 111.156L237.934 110.125L233.087 107.289L232.469 108.423L237.16 111.156Z" fill="white"/>
<path d="M232.414 102.494L233.033 103.577L238.292 100.483L237.415 99.5039L232.414 102.494Z" fill="white"/>
<path d="M232.466 108.423L233.755 108.526V102.494H232.414L232.466 108.423Z" fill="white"/>
<path d="M236.75 89.2429L238.039 89.346V84.9121H236.75V89.2429Z" fill="white"/>
<path d="M236.906 89.2951L237.473 90.4293L246.908 84.758V83.3145L236.906 89.2951Z" fill="white"/>
<path d="M236.75 84.2949L237.317 85.4807L250.361 77.6956L249.175 77.0254L236.75 84.2949Z" fill="white"/>
<path d="M232.414 81.6643L233.033 82.7985L242.932 76.921L241.746 76.1992L232.414 81.6643Z" fill="white"/>
<path d="M233.036 86.3047L232.469 87.3874L237.47 90.4292L237.882 89.1919L233.036 86.3047Z" fill="white"/>
<path d="M233.036 81.3555L232.469 82.4382L237.624 85.5831L238.037 84.3458L233.036 81.3555Z" fill="white"/>
<path d="M198.58 158.984V148.486H202.127C202.951 148.486 203.624 148.634 204.147 148.932C204.674 149.225 205.063 149.624 205.316 150.126C205.569 150.628 205.695 151.189 205.695 151.807C205.695 152.426 205.569 152.988 205.316 153.494C205.067 154 204.68 154.403 204.157 154.704C203.635 155.001 202.965 155.15 202.148 155.15H199.605V154.022H202.107C202.671 154.022 203.124 153.925 203.465 153.73C203.807 153.535 204.055 153.272 204.209 152.94C204.366 152.605 204.445 152.228 204.445 151.807C204.445 151.387 204.366 151.011 204.209 150.68C204.055 150.348 203.805 150.088 203.46 149.9C203.115 149.709 202.657 149.613 202.086 149.613H199.851V158.984H198.58ZM207.888 158.984V148.486H211.435C212.255 148.486 212.929 148.626 213.455 148.906C213.981 149.183 214.371 149.564 214.624 150.049C214.877 150.534 215.003 151.086 215.003 151.705C215.003 152.323 214.877 152.872 214.624 153.35C214.371 153.829 213.983 154.205 213.46 154.478C212.937 154.748 212.269 154.883 211.456 154.883H208.585V153.735H211.415C211.975 153.735 212.426 153.653 212.768 153.489C213.113 153.325 213.363 153.092 213.517 152.792C213.674 152.488 213.752 152.125 213.752 151.705C213.752 151.285 213.674 150.917 213.517 150.603C213.359 150.288 213.108 150.046 212.763 149.875C212.418 149.7 211.962 149.613 211.394 149.613H209.159V158.984H207.888ZM212.83 154.268L215.413 158.984H213.937L211.394 154.268H212.83ZM218.537 148.486V158.984H217.266V148.486H218.537ZM221.231 148.486H222.748L226.316 157.2H226.439L230.007 148.486H231.525V158.984H230.335V151.008H230.233L226.952 158.984H225.804L222.523 151.008H222.42V158.984H221.231V148.486ZM234.218 158.984V148.486H240.554V149.613H235.489V153.161H240.226V154.289H235.489V157.857H240.636V158.984H234.218Z" fill="white"/>
<path d="M174.828 180.14H172.104C171.942 179.357 171.66 178.668 171.258 178.075C170.862 177.482 170.379 176.984 169.808 176.581C169.244 176.171 168.618 175.863 167.929 175.658C167.241 175.453 166.523 175.351 165.776 175.351C164.414 175.351 163.18 175.695 162.074 176.383C160.976 177.072 160.1 178.086 159.449 179.426C158.804 180.766 158.482 182.411 158.482 184.359C158.482 186.307 158.804 187.951 159.449 189.291C160.1 190.631 160.976 191.645 162.074 192.334C163.18 193.022 164.414 193.366 165.776 193.366C166.523 193.366 167.241 193.264 167.929 193.059C168.618 192.854 169.244 192.55 169.808 192.147C170.379 191.737 170.862 191.235 171.258 190.642C171.66 190.042 171.942 189.353 172.104 188.577H174.828C174.623 189.727 174.249 190.756 173.707 191.664C173.165 192.572 172.492 193.344 171.686 193.982C170.881 194.611 169.976 195.091 168.973 195.421C167.977 195.75 166.911 195.915 165.776 195.915C163.857 195.915 162.151 195.446 160.657 194.509C159.163 193.572 157.988 192.239 157.131 190.51C156.274 188.782 155.846 186.731 155.846 184.359C155.846 181.986 156.274 179.935 157.131 178.207C157.988 176.479 159.163 175.146 160.657 174.208C162.151 173.271 163.857 172.802 165.776 172.802C166.911 172.802 167.977 172.967 168.973 173.297C169.976 173.626 170.881 174.109 171.686 174.747C172.492 175.376 173.165 176.145 173.707 177.054C174.249 177.954 174.623 178.983 174.828 180.14ZM180.462 195.607H177.606L185.867 173.11H188.679L196.94 195.607H194.084L187.361 176.669H187.185L180.462 195.607ZM181.517 186.819H193.029V189.236H181.517V186.819ZM200.754 195.607V173.11H208.355C210.113 173.11 211.556 173.41 212.683 174.011C213.811 174.604 214.646 175.42 215.188 176.46C215.73 177.5 216.001 178.683 216.001 180.009C216.001 181.334 215.73 182.509 215.188 183.535C214.646 184.56 213.815 185.366 212.694 185.951C211.574 186.53 210.142 186.819 208.399 186.819H202.248V184.359H208.311C209.512 184.359 210.479 184.183 211.211 183.831C211.951 183.48 212.486 182.982 212.815 182.337C213.152 181.686 213.321 180.909 213.321 180.009C213.321 179.108 213.152 178.32 212.815 177.647C212.478 176.973 211.94 176.453 211.2 176.087C210.461 175.713 209.483 175.527 208.267 175.527H203.478V195.607H200.754ZM211.343 185.501L216.88 195.607H213.716L208.267 185.501H211.343ZM220.85 195.607V173.11H228.715C230.282 173.11 231.575 173.381 232.593 173.923C233.611 174.457 234.369 175.179 234.867 176.087C235.365 176.988 235.614 177.987 235.614 179.086C235.614 180.052 235.442 180.851 235.098 181.481C234.761 182.11 234.314 182.608 233.757 182.975C233.208 183.341 232.611 183.612 231.967 183.787V184.007C232.655 184.051 233.347 184.293 234.043 184.732C234.739 185.172 235.321 185.801 235.79 186.622C236.258 187.442 236.493 188.445 236.493 189.632C236.493 190.759 236.236 191.774 235.724 192.674C235.211 193.575 234.402 194.289 233.296 194.816C232.19 195.344 230.751 195.607 228.979 195.607H220.85ZM223.574 193.191H228.979C230.758 193.191 232.022 192.846 232.769 192.158C233.523 191.462 233.9 190.62 233.9 189.632C233.9 188.87 233.706 188.167 233.318 187.522C232.93 186.871 232.377 186.351 231.659 185.962C230.942 185.567 230.092 185.369 229.111 185.369H223.574V193.191ZM223.574 182.996H228.627C229.448 182.996 230.187 182.835 230.846 182.513C231.513 182.191 232.04 181.737 232.428 181.151C232.824 180.565 233.021 179.877 233.021 179.086C233.021 178.097 232.677 177.259 231.989 176.57C231.3 175.874 230.209 175.527 228.715 175.527H223.574V182.996ZM260.261 184.359C260.261 186.731 259.832 188.782 258.976 190.51C258.119 192.239 256.943 193.572 255.449 194.509C253.955 195.446 252.249 195.915 250.33 195.915C248.412 195.915 246.705 195.446 245.211 194.509C243.717 193.572 242.542 192.239 241.685 190.51C240.828 188.782 240.4 186.731 240.4 184.359C240.4 181.986 240.828 179.935 241.685 178.207C242.542 176.479 243.717 175.146 245.211 174.208C246.705 173.271 248.412 172.802 250.33 172.802C252.249 172.802 253.955 173.271 255.449 174.208C256.943 175.146 258.119 176.479 258.976 178.207C259.832 179.935 260.261 181.986 260.261 184.359ZM257.624 184.359C257.624 182.411 257.298 180.766 256.647 179.426C256.002 178.086 255.127 177.072 254.021 176.383C252.923 175.695 251.692 175.351 250.33 175.351C248.968 175.351 247.734 175.695 246.628 176.383C245.53 177.072 244.655 178.086 244.003 179.426C243.358 180.766 243.036 182.411 243.036 184.359C243.036 186.307 243.358 187.951 244.003 189.291C244.655 190.631 245.53 191.645 246.628 192.334C247.734 193.022 248.968 193.366 250.33 193.366C251.692 193.366 252.923 193.022 254.021 192.334C255.127 191.645 256.002 190.631 256.647 189.291C257.298 187.951 257.624 186.307 257.624 184.359ZM282.991 173.11V195.607H280.354L268.095 177.943H267.875V195.607H265.151V173.11H267.787L280.091 190.818H280.31V173.11H282.991Z" fill="white"/>
</svg>
