<svg width="440" height="261" viewBox="0 0 440 261" fill="none" xmlns="http://www.w3.org/2000/svg">
<rect x="0.5" y="0.5" width="439" height="260" fill="white" stroke="black"/>
<rect x="53" y="43" width="4" height="133" fill="#1E1D1D"/>
<rect x="179" y="43" width="4" height="133" fill="#1E1D1D"/>
<rect x="306" y="43" width="4" height="133" fill="#1E1D1D"/>
<rect x="65" y="43" width="4" height="133" fill="#1E1D1D"/>
<rect x="191" y="43" width="4" height="133" fill="#1E1D1D"/>
<rect x="318" y="43" width="4" height="133" fill="#1E1D1D"/>
<rect x="80" y="43" width="3" height="133" fill="#1E1D1D"/>
<rect x="206" y="43" width="3" height="133" fill="#1E1D1D"/>
<rect x="333" y="43" width="3" height="133" fill="#1E1D1D"/>
<rect x="94" y="43" width="4" height="133" fill="#1E1D1D"/>
<rect x="220" y="43" width="4" height="133" fill="#1E1D1D"/>
<rect x="347" y="43" width="4" height="133" fill="#1E1D1D"/>
<rect x="113" y="43" width="4" height="133" fill="#1E1D1D"/>
<rect x="239" y="43" width="4" height="133" fill="#1E1D1D"/>
<rect x="366" y="43" width="4" height="133" fill="#1E1D1D"/>
<rect x="131" y="43" width="4" height="133" fill="#1E1D1D"/>
<rect x="257" y="43" width="4" height="133" fill="#1E1D1D"/>
<rect x="384" y="43" width="4" height="133" fill="#1E1D1D"/>
<rect x="40" y="43" width="1" height="133" fill="#1E1D1D"/>
<rect x="166" y="43" width="1" height="133" fill="#1E1D1D"/>
<rect x="293" y="43" width="1" height="133" fill="#1E1D1D"/>
<rect x="72" y="43" width="1" height="133" fill="#1E1D1D"/>
<rect x="198" y="43" width="1" height="133" fill="#1E1D1D"/>
<rect x="325" y="43" width="1" height="133" fill="#1E1D1D"/>
<rect x="76" y="43" width="1" height="133" fill="#1E1D1D"/>
<rect x="202" y="43" width="1" height="133" fill="#1E1D1D"/>
<rect x="329" y="43" width="1" height="133" fill="#1E1D1D"/>
<rect x="34" y="43" width="1" height="133" fill="#1E1D1D"/>
<rect x="160" y="43" width="1" height="133" fill="#1E1D1D"/>
<rect x="287" y="43" width="1" height="133" fill="#1E1D1D"/>
<rect x="107" y="43" width="1" height="133" fill="#1E1D1D"/>
<rect x="233" y="43" width="1" height="133" fill="#1E1D1D"/>
<rect x="360" y="43" width="1" height="133" fill="#1E1D1D"/>
<rect x="102" y="43" width="1" height="133" fill="#1E1D1D"/>
<rect x="228" y="43" width="1" height="133" fill="#1E1D1D"/>
<rect x="355" y="43" width="1" height="133" fill="#1E1D1D"/>
<rect x="120" y="43" width="1" height="133" fill="#1E1D1D"/>
<rect x="246" y="43" width="1" height="133" fill="#1E1D1D"/>
<rect x="373" y="43" width="1" height="133" fill="#1E1D1D"/>
<rect x="124" y="43" width="1" height="133" fill="#1E1D1D"/>
<rect x="250" y="43" width="1" height="133" fill="#1E1D1D"/>
<rect x="377" y="43" width="1" height="133" fill="#1E1D1D"/>
<rect x="127" y="43" width="1" height="133" fill="#1E1D1D"/>
<rect x="253" y="43" width="1" height="133" fill="#1E1D1D"/>
<rect x="380" y="43" width="1" height="133" fill="#1E1D1D"/>
<rect x="138" y="43" width="1" height="133" fill="#1E1D1D"/>
<rect x="264" y="43" width="1" height="133" fill="#1E1D1D"/>
<rect x="391" y="43" width="1" height="133" fill="#1E1D1D"/>
<rect x="143" y="43" width="1" height="133" fill="#1E1D1D"/>
<rect x="269" y="43" width="1" height="133" fill="#1E1D1D"/>
<rect x="396" y="43" width="1" height="133" fill="#1E1D1D"/>
<rect x="146" y="43" width="1" height="133" fill="#1E1D1D"/>
<rect x="272" y="43" width="1" height="133" fill="#1E1D1D"/>
<rect x="399" y="43" width="1" height="133" fill="#1E1D1D"/>
<rect x="149" y="43" width="1" height="133" fill="#1E1D1D"/>
<rect x="275" y="43" width="1" height="133" fill="#1E1D1D"/>
<rect x="402" y="43" width="1" height="133" fill="#1E1D1D"/>
<rect x="153" y="43" width="1" height="133" fill="#1E1D1D"/>
<rect x="279" y="43" width="1" height="133" fill="#1E1D1D"/>
<rect x="406" y="43" width="1" height="133" fill="#1E1D1D"/>
<rect x="86" y="43" width="1" height="133" fill="#1E1D1D"/>
<rect x="212" y="43" width="1" height="133" fill="#1E1D1D"/>
<rect x="339" y="43" width="1" height="133" fill="#1E1D1D"/>
<rect x="47" y="43" width="1" height="133" fill="#1E1D1D"/>
<rect x="173" y="43" width="1" height="133" fill="#1E1D1D"/>
<rect x="300" y="43" width="1" height="133" fill="#1E1D1D"/>
<rect x="60" y="43" width="1" height="133" fill="#1E1D1D"/>
<rect x="186" y="43" width="1" height="133" fill="#1E1D1D"/>
<rect x="313" y="43" width="1" height="133" fill="#1E1D1D"/>
<path d="M177.958 217.108C176.986 217.108 176.122 216.856 175.366 216.352C174.61 215.836 174.016 215.104 173.584 214.156C173.152 213.196 172.936 212.044 172.936 210.7C172.936 209.356 173.152 208.21 173.584 207.262C174.016 206.302 174.61 205.57 175.366 205.066C176.122 204.55 176.986 204.292 177.958 204.292C178.93 204.292 179.794 204.55 180.55 205.066C181.306 205.57 181.9 206.302 182.332 207.262C182.776 208.21 182.998 209.356 182.998 210.7C182.998 212.044 182.776 213.196 182.332 214.156C181.9 215.104 181.306 215.836 180.55 216.352C179.794 216.856 178.93 217.108 177.958 217.108ZM177.958 215.92C178.702 215.92 179.35 215.722 179.902 215.326C180.454 214.918 180.886 214.33 181.198 213.562C181.51 212.782 181.666 211.828 181.666 210.7C181.666 209.572 181.51 208.624 181.198 207.856C180.886 207.076 180.454 206.488 179.902 206.092C179.35 205.684 178.702 205.48 177.958 205.48C177.238 205.48 176.596 205.684 176.032 206.092C175.468 206.488 175.03 207.076 174.718 207.856C174.406 208.624 174.25 209.572 174.25 210.7C174.25 211.828 174.406 212.782 174.718 213.562C175.03 214.33 175.468 214.918 176.032 215.326C176.596 215.722 177.238 215.92 177.958 215.92ZM187.23 217V204.94L187.806 205.552H184.26V204.4H188.526V217H187.23ZM195.642 204.292C196.758 204.292 197.7 204.544 198.468 205.048C199.236 205.54 199.818 206.254 200.214 207.19C200.61 208.126 200.808 209.26 200.808 210.592C200.808 212.008 200.562 213.202 200.07 214.174C199.59 215.146 198.918 215.878 198.054 216.37C197.19 216.862 196.188 217.108 195.048 217.108C194.484 217.108 193.944 217.054 193.428 216.946C192.924 216.838 192.468 216.664 192.06 216.424L192.582 215.38C192.906 215.596 193.278 215.752 193.698 215.848C194.13 215.932 194.574 215.974 195.03 215.974C196.386 215.974 197.466 215.542 198.27 214.678C199.086 213.814 199.494 212.524 199.494 210.808C199.494 210.532 199.476 210.202 199.44 209.818C199.416 209.434 199.35 209.05 199.242 208.666L199.692 209.008C199.572 209.632 199.314 210.166 198.918 210.61C198.534 211.042 198.054 211.372 197.478 211.6C196.914 211.828 196.284 211.942 195.588 211.942C194.76 211.942 194.022 211.786 193.374 211.474C192.738 211.162 192.24 210.724 191.88 210.16C191.52 209.596 191.34 208.93 191.34 208.162C191.34 207.37 191.526 206.686 191.898 206.11C192.27 205.534 192.78 205.09 193.428 204.778C194.088 204.454 194.826 204.292 195.642 204.292ZM195.696 205.39C195.096 205.39 194.562 205.504 194.094 205.732C193.638 205.948 193.278 206.26 193.014 206.668C192.75 207.076 192.618 207.562 192.618 208.126C192.618 208.954 192.9 209.614 193.464 210.106C194.04 210.598 194.814 210.844 195.786 210.844C196.434 210.844 196.998 210.724 197.478 210.484C197.97 210.244 198.348 209.914 198.612 209.494C198.888 209.074 199.026 208.606 199.026 208.09C199.026 207.622 198.9 207.184 198.648 206.776C198.396 206.368 198.024 206.038 197.532 205.786C197.04 205.522 196.428 205.39 195.696 205.39ZM207.655 217.108C206.647 217.108 205.777 216.964 205.045 216.676C204.325 216.388 203.767 215.974 203.371 215.434C202.987 214.882 202.795 214.234 202.795 213.49C202.795 212.77 202.981 212.158 203.353 211.654C203.737 211.138 204.289 210.742 205.009 210.466C205.741 210.19 206.623 210.052 207.655 210.052C208.675 210.052 209.551 210.19 210.283 210.466C211.015 210.742 211.573 211.138 211.957 211.654C212.353 212.158 212.551 212.77 212.551 213.49C212.551 214.234 212.353 214.882 211.957 215.434C211.561 215.974 210.997 216.388 210.265 216.676C209.533 216.964 208.663 217.108 207.655 217.108ZM207.655 216.01C208.771 216.01 209.641 215.782 210.265 215.326C210.901 214.87 211.219 214.252 211.219 213.472C211.219 212.692 210.901 212.08 210.265 211.636C209.641 211.18 208.771 210.952 207.655 210.952C206.539 210.952 205.669 211.18 205.045 211.636C204.421 212.08 204.109 212.692 204.109 213.472C204.109 214.252 204.421 214.87 205.045 215.326C205.669 215.782 206.539 216.01 207.655 216.01ZM207.655 210.79C206.719 210.79 205.921 210.664 205.261 210.412C204.613 210.16 204.115 209.8 203.767 209.332C203.419 208.852 203.245 208.282 203.245 207.622C203.245 206.926 203.425 206.332 203.785 205.84C204.157 205.336 204.673 204.952 205.333 204.688C205.993 204.424 206.767 204.292 207.655 204.292C208.543 204.292 209.317 204.424 209.977 204.688C210.649 204.952 211.171 205.336 211.543 205.84C211.915 206.332 212.101 206.926 212.101 207.622C212.101 208.282 211.927 208.852 211.579 209.332C211.231 209.8 210.721 210.16 210.049 210.412C209.389 210.664 208.591 210.79 207.655 210.79ZM207.655 209.926C208.639 209.926 209.407 209.722 209.959 209.314C210.511 208.906 210.787 208.36 210.787 207.676C210.787 206.956 210.499 206.398 209.923 206.002C209.359 205.594 208.603 205.39 207.655 205.39C206.707 205.39 205.951 205.594 205.387 206.002C204.823 206.398 204.541 206.95 204.541 207.658C204.541 208.354 204.811 208.906 205.351 209.314C205.903 209.722 206.671 209.926 207.655 209.926ZM214.309 213.688V212.752L220.987 204.4H222.427L215.803 212.752L215.101 212.536H225.235V213.688H214.309ZM221.419 217V213.688L221.455 212.536V209.62H222.715V217H221.419ZM231.772 217.108C230.656 217.108 229.714 216.862 228.946 216.37C228.178 215.866 227.596 215.146 227.2 214.21C226.804 213.262 226.606 212.128 226.606 210.808C226.606 209.38 226.846 208.186 227.326 207.226C227.818 206.254 228.496 205.522 229.36 205.03C230.224 204.538 231.226 204.292 232.366 204.292C232.93 204.292 233.47 204.346 233.986 204.454C234.502 204.562 234.958 204.736 235.354 204.976L234.832 206.02C234.508 205.804 234.136 205.654 233.716 205.57C233.296 205.474 232.852 205.426 232.384 205.426C231.028 205.426 229.942 205.858 229.126 206.722C228.322 207.586 227.92 208.876 227.92 210.592C227.92 210.856 227.932 211.186 227.956 211.582C227.992 211.966 228.064 212.35 228.172 212.734L227.722 212.392C227.854 211.768 228.112 211.24 228.496 210.808C228.88 210.364 229.36 210.028 229.936 209.8C230.512 209.572 231.142 209.458 231.826 209.458C232.666 209.458 233.404 209.614 234.04 209.926C234.676 210.238 235.174 210.676 235.534 211.24C235.894 211.804 236.074 212.47 236.074 213.238C236.074 214.018 235.888 214.702 235.516 215.29C235.144 215.866 234.628 216.316 233.968 216.64C233.32 216.952 232.588 217.108 231.772 217.108ZM231.718 216.01C232.318 216.01 232.846 215.902 233.302 215.686C233.77 215.458 234.136 215.14 234.4 214.732C234.664 214.312 234.796 213.826 234.796 213.274C234.796 212.446 234.508 211.786 233.932 211.294C233.368 210.802 232.6 210.556 231.628 210.556C230.98 210.556 230.416 210.676 229.936 210.916C229.456 211.156 229.078 211.486 228.802 211.906C228.526 212.314 228.388 212.782 228.388 213.31C228.388 213.766 228.514 214.204 228.766 214.624C229.018 215.032 229.39 215.368 229.882 215.632C230.386 215.884 230.998 216.01 231.718 216.01ZM239.828 217L245.264 204.976L245.66 205.552H237.866L238.532 204.922V207.91H237.254V204.4H246.506V205.318L241.232 217H239.828ZM248.159 217V216.082L253.397 210.952C253.877 210.484 254.237 210.076 254.477 209.728C254.717 209.368 254.879 209.032 254.963 208.72C255.047 208.408 255.089 208.114 255.089 207.838C255.089 207.106 254.837 206.53 254.333 206.11C253.841 205.69 253.109 205.48 252.137 205.48C251.393 205.48 250.733 205.594 250.157 205.822C249.593 206.05 249.107 206.404 248.699 206.884L247.781 206.092C248.273 205.516 248.903 205.072 249.671 204.76C250.439 204.448 251.297 204.292 252.245 204.292C253.097 204.292 253.835 204.43 254.459 204.706C255.083 204.97 255.563 205.36 255.899 205.876C256.247 206.392 256.421 206.998 256.421 207.694C256.421 208.102 256.361 208.504 256.241 208.9C256.133 209.296 255.929 209.716 255.629 210.16C255.341 210.592 254.915 211.084 254.351 211.636L249.545 216.352L249.185 215.848H256.997V217H248.159ZM262.782 217.108C261.882 217.108 261.024 216.964 260.208 216.676C259.392 216.376 258.744 215.98 258.264 215.488L258.894 214.462C259.29 214.882 259.83 215.23 260.514 215.506C261.21 215.782 261.96 215.92 262.764 215.92C263.832 215.92 264.642 215.686 265.194 215.218C265.758 214.738 266.04 214.114 266.04 213.346C266.04 212.806 265.908 212.344 265.644 211.96C265.392 211.564 264.96 211.258 264.348 211.042C263.736 210.826 262.896 210.718 261.828 210.718H259.146L259.794 204.4H266.688V205.552H260.316L260.982 204.922L260.424 210.214L259.758 209.566H262.116C263.388 209.566 264.408 209.722 265.176 210.034C265.944 210.346 266.496 210.784 266.832 211.348C267.18 211.9 267.354 212.548 267.354 213.292C267.354 214 267.186 214.648 266.85 215.236C266.514 215.812 266.01 216.268 265.338 216.604C264.666 216.94 263.814 217.108 262.782 217.108Z" fill="#1E1D1D"/>
</svg>
