<svg width="302" height="55" viewBox="0 0 302 55" fill="none" xmlns="http://www.w3.org/2000/svg">
<g clip-path="url(#clip0_3919_351)">
<path d="M47.9922 13.8247L37.6032 7.91568L34.4651 9.7194V6.02388L24.0331 0L13.5428 6.08898V9.74621L10.3851 7.93865L0 13.8477V41.1561L10.2214 47.1379L13.5428 45.158V48.9876L24.0293 55L34.3247 49.0259H34.3442V45.0853L37.7747 47.1303L48 41.1485V13.8247H47.9922ZM6.40884 21.8667V36.8939L4.06985 38.2496V20.4728L6.40884 21.8667ZM37.2055 22.6825L34.9329 21.3421V18.7303L37.2172 20.0936L37.2055 22.6825ZM24.037 27.1591L14.9773 21.8591L17.3163 20.4574L23.0859 23.8006L24.0214 24.3407L30.6486 20.511L33.0149 21.9012L24.037 27.1591ZM10.7828 20.1128L13.0633 18.7495V21.3612L10.7828 22.6901V20.1128ZM31.2138 11.1095V8.53607L33.4904 7.17275V9.7845L31.2138 11.1095ZM30.2353 11.1899L24.5438 7.90036V5.20053L30.2276 8.52841L30.2353 11.1899ZM24.5438 22.9582V8.95348L26.6684 10.2019V21.725L24.5438 22.9582ZM23.5614 8.95732V23.0118L21.0782 21.5565V10.4126L23.5614 8.95732ZM23.5614 5.20436V7.88505L17.7841 11.2321V8.58968L23.5614 5.20436ZM16.8018 8.59352V11.167L14.5213 9.85344V7.23019L16.8018 8.59352ZM13.0555 13.8974L10.3266 15.4675L7.96427 14.1042L13.0633 11.2053L13.0555 13.8974ZM14.03 14.4374V10.6193L17.3514 12.5992L20.0803 10.9908V20.9936L17.3514 19.389L14.0262 21.3038V17.6044L11.2622 16.0113L14.03 14.4374ZM33.9544 17.593V21.3612L30.6407 19.4197L27.643 21.1583V10.7764L30.6486 12.5341L33.9544 10.5657V14.4221L36.7144 15.9999L33.9544 17.593ZM37.6695 15.4522L34.9406 13.8783V11.1976L40.0396 14.0966L37.6695 15.4522ZM30.7187 7.72037L24.0331 3.87167L17.293 7.77782L14.9033 6.40684L24.0527 1.04547L33.1045 6.33791L30.7187 7.72037ZM6.41273 13.8936L6.11257 14.066L12.6695 17.8955L10.276 19.3009L1.39559 14.1502L10.4241 9.01476L12.6461 10.3206L6.41273 13.8936ZM10.2214 24.1147L13.3868 22.2267V25.7805L16.3808 27.5115L13.5428 29.139L13.5622 29.1621H13.5428V32.7771L10.276 30.8624L7.39122 32.5206V22.4336L10.2214 24.1147ZM15.0007 44.8938L17.254 43.5534L20.0997 45.1734V47.923L15.0007 44.8938ZM10.276 31.9653L12.6423 33.3593L7.37562 36.3693V33.6196L10.276 31.9653ZM20.0841 32.9992L17.7685 34.3281V31.567L20.0841 30.2458V32.9992ZM16.8018 31.6819V34.2591L14.5213 32.9341V30.3224L16.8018 31.6819ZM13.0555 34.2553V36.936L10.3461 38.4908L7.98766 37.1275L13.0555 34.2553ZM14.03 37.4874V33.7039L17.3514 35.6838L20.0803 34.1213V44.0782L17.293 42.4736L14.03 44.3653V40.6238L11.3012 39.0384L14.03 37.4874ZM17.1993 30.8202L14.8955 29.476L17.3436 28.0859L19.6319 29.3842L17.1993 30.8202ZM6.99359 37.6177L12.6734 40.9418L10.276 42.3165L4.59222 39.0269L6.99359 37.6177ZM10.775 43.1438L13.0555 41.7803V44.3921L10.775 45.721V43.1438ZM21.0743 49.5659V48.9608V29.1888H21.0548H21.0743L14.3614 25.2597V22.6058L23.5303 27.9213H23.5497V53.6136L14.5056 48.4284V45.7172L21.0743 49.5659ZM24.5399 27.9174L33.3813 22.7897V25.4436L26.6723 29.3842H26.6528V48.6965V49.7688L27.5611 49.2366H27.6313V49.1945L33.3423 45.8282V48.4744L24.5438 53.5103V27.9213L24.5399 27.9174ZM37.6967 31.95L40.601 33.6004V36.3539L35.3305 33.3401L37.6967 31.95ZM33.9544 40.6086V44.3385L30.7694 42.4736L27.6508 44.2696V33.9107L30.6564 35.611L33.9621 33.6426V37.4722L36.691 39.0384L33.9544 40.6086ZM33.4904 32.8613L31.2061 34.1864V31.6091L33.4904 30.2496V32.8613ZM30.2276 34.2821L27.6468 32.8001V30.0505L30.2276 31.5172V34.2821ZM27.6468 45.3611L30.789 43.5765L33.05 44.9053L27.6468 48.1106V45.3611ZM37.6422 38.4678L34.9329 36.9131V34.2323L40.0006 37.116L37.6422 38.4678ZM30.8007 30.7475L28.4617 29.3918L30.7617 28.063L33.124 29.4071L30.8007 30.7475ZM34.9329 41.7459L37.2172 43.1092V45.6826L34.9329 44.3577V41.7459ZM37.7006 42.2936L35.3149 40.9072L40.9947 37.5794L43.3844 39.004L37.7006 42.2936ZM43.9068 38.2151L41.5678 36.8632V21.8361L43.9068 20.4574V38.2151ZM40.601 32.5052L37.7123 30.8432L34.4651 32.758V29.1122L31.7168 27.5076L34.3754 25.9758V22.0697L37.7826 24.1032L40.6165 22.422L40.601 32.5052ZM37.7006 19.278L35.3149 17.8955L41.8758 14.066L41.5716 13.8897L35.3343 10.3206L37.5564 9.01476L46.5849 14.1502L37.7006 19.278ZM0.978476 40.6583V14.9505L9.79257 20.1089V22.759L3.10306 18.8184V19.8907V39.2069L9.79257 43.1246V45.7822L0.970684 40.6659L0.978476 40.6583ZM38.2113 45.7632V43.1054L44.9008 39.184V19.8754V18.8031L38.2113 22.7437V20.0936L47.0254 14.9352V40.6469L38.2113 45.7632Z" fill="white"/>
</g>
<path d="M78.3045 17.4996C80.1203 17.4996 81.692 17.8022 83.0196 18.4074C84.3668 19.0127 85.4016 19.8718 86.124 20.9846C86.8464 22.0975 87.2076 23.4154 87.2076 24.9383C87.2076 26.4417 86.8464 27.7595 86.124 28.892C85.4016 30.0048 84.3668 30.8639 83.0196 31.4691C81.692 32.0549 80.1203 32.3477 78.3045 32.3477H74.1751V38H69.4308V17.4996H78.3045ZM78.0409 28.4819C79.4662 28.4819 80.5498 28.1793 81.2917 27.5741C82.0336 26.9493 82.4046 26.0707 82.4046 24.9383C82.4046 23.7864 82.0336 22.9078 81.2917 22.3025C80.5498 21.6778 79.4662 21.3654 78.0409 21.3654H74.1751V28.4819H78.0409ZM102.778 38L98.8242 32.2892H98.5899H94.4605V38H89.7161V17.4996H98.5899C100.406 17.4996 101.977 17.8022 103.305 18.4074C104.652 19.0127 105.687 19.8718 106.409 20.9846C107.132 22.0975 107.493 23.4154 107.493 24.9383C107.493 26.4612 107.122 27.7791 106.38 28.892C105.658 29.9853 104.623 30.8248 103.276 31.4106L107.874 38H102.778ZM102.69 24.9383C102.69 23.7864 102.319 22.9078 101.577 22.3025C100.835 21.6778 99.7516 21.3654 98.3263 21.3654H94.4605V28.5112H98.3263C99.7516 28.5112 100.835 28.1988 101.577 27.5741C102.319 26.9493 102.69 26.0707 102.69 24.9383ZM110.373 17.4996H115.118V38H110.373V17.4996ZM137.76 38L137.73 25.6997L131.697 35.8328H129.559L123.556 25.9633V38H119.104V17.4996H123.029L130.702 30.2391L138.258 17.4996H142.153L142.211 38H137.76ZM162.07 34.1928V38H146.196V17.4996H161.689V21.3068H150.911V25.7583H160.43V29.4484H150.911V34.1928H162.07ZM182.192 38.3514C180.103 38.3514 178.209 37.9024 176.511 37.0043C174.832 36.0866 173.504 34.8273 172.528 33.2263C171.571 31.6058 171.093 29.7803 171.093 27.7498C171.093 25.7193 171.571 23.9035 172.528 22.3025C173.504 20.682 174.832 19.4227 176.511 18.5246C178.209 17.607 180.113 17.1481 182.222 17.1481C183.998 17.1481 185.599 17.4605 187.025 18.0853C188.469 18.7101 189.68 19.6082 190.656 20.7796L187.61 23.5911C186.224 21.9901 184.506 21.1896 182.456 21.1896C181.187 21.1896 180.054 21.4728 179.059 22.039C178.063 22.5856 177.282 23.3568 176.716 24.3526C176.169 25.3483 175.896 26.4807 175.896 27.7498C175.896 29.0189 176.169 30.1513 176.716 31.147C177.282 32.1427 178.063 32.9237 179.059 33.4899C180.054 34.0366 181.187 34.3099 182.456 34.3099C184.506 34.3099 186.224 33.4997 187.61 31.8792L190.656 34.6906C189.68 35.8816 188.469 36.7895 187.025 37.4143C185.58 38.039 183.969 38.3514 182.192 38.3514ZM206.082 33.6071H196.564L194.748 38H189.887L199.024 17.4996H203.71L212.876 38H207.898L206.082 33.6071ZM204.588 30.0048L201.338 22.1561L198.087 30.0048H204.588ZM227.186 38L223.233 32.2892H222.998H218.869V38H214.125V17.4996H222.998C224.814 17.4996 226.386 17.8022 227.714 18.4074C229.061 19.0127 230.095 19.8718 230.818 20.9846C231.54 22.0975 231.901 23.4154 231.901 24.9383C231.901 26.4612 231.53 27.7791 230.789 28.892C230.066 29.9853 229.031 30.8248 227.684 31.4106L232.282 38H227.186ZM227.099 24.9383C227.099 23.7864 226.728 22.9078 225.986 22.3025C225.244 21.6778 224.16 21.3654 222.735 21.3654H218.869V28.5112H222.735C224.16 28.5112 225.244 28.1988 225.986 27.5741C226.728 26.9493 227.099 26.0707 227.099 24.9383ZM249.835 27.3398C251.006 27.7107 251.924 28.3355 252.588 29.2141C253.252 30.0732 253.584 31.1372 253.584 32.4063C253.584 34.2025 252.881 35.5888 251.475 36.565C250.089 37.5217 248.058 38 245.383 38H234.782V17.4996H244.798C247.297 17.4996 249.21 17.9779 250.538 18.9346C251.885 19.8913 252.559 21.1896 252.559 22.8297C252.559 23.8254 252.315 24.7138 251.826 25.4947C251.358 26.2757 250.694 26.8907 249.835 27.3398ZM239.497 21.0725V25.9047H244.212C245.383 25.9047 246.272 25.6997 246.877 25.2897C247.482 24.8797 247.785 24.2745 247.785 23.474C247.785 22.6735 247.482 22.078 246.877 21.6875C246.272 21.2775 245.383 21.0725 244.212 21.0725H239.497ZM245.032 34.4271C246.282 34.4271 247.219 34.2221 247.844 33.8121C248.488 33.402 248.81 32.7675 248.81 31.9084C248.81 30.2098 247.551 29.3605 245.032 29.3605H239.497V34.4271H245.032ZM266.225 38.3514C264.097 38.3514 262.174 37.8926 260.456 36.975C258.757 36.0573 257.42 34.798 256.443 33.197C255.487 31.5765 255.008 29.7608 255.008 27.7498C255.008 25.7388 255.487 23.9328 256.443 22.3318C257.42 20.7113 258.757 19.4422 260.456 18.5246C262.174 17.607 264.097 17.1481 266.225 17.1481C268.353 17.1481 270.267 17.607 271.965 18.5246C273.664 19.4422 275.001 20.7113 275.977 22.3318C276.954 23.9328 277.442 25.7388 277.442 27.7498C277.442 29.7608 276.954 31.5765 275.977 33.197C275.001 34.798 273.664 36.0573 271.965 36.975C270.267 37.8926 268.353 38.3514 266.225 38.3514ZM266.225 34.3099C267.436 34.3099 268.529 34.0366 269.505 33.4899C270.481 32.9237 271.243 32.1427 271.789 31.147C272.356 30.1513 272.639 29.0189 272.639 27.7498C272.639 26.4807 272.356 25.3483 271.789 24.3526C271.243 23.3568 270.481 22.5856 269.505 22.039C268.529 21.4728 267.436 21.1896 266.225 21.1896C265.015 21.1896 263.921 21.4728 262.945 22.039C261.969 22.5856 261.198 23.3568 260.631 24.3526C260.085 25.3483 259.811 26.4807 259.811 27.7498C259.811 29.0189 260.085 30.1513 260.631 31.147C261.198 32.1427 261.969 32.9237 262.945 33.4899C263.921 34.0366 265.015 34.3099 266.225 34.3099ZM298.931 17.4996V38H295.035L284.815 25.5533V38H280.129V17.4996H284.053L294.245 29.9463V17.4996H298.931Z" fill="white"/>
<defs>
<clipPath id="clip0_3919_351">
<rect width="48" height="55" fill="white"/>
</clipPath>
</defs>
</svg>
