<svg width="156" height="173" viewBox="0 0 156 173" fill="none" xmlns="http://www.w3.org/2000/svg">
<path d="M41.5415 65.4199L40 66.2214V22.2578H41.5415V65.4199Z" fill="white"/>
<path d="M61.458 78.8638L61.9513 77.3223L78.7845 87.1879L78.0446 88.5444L61.458 78.8638Z" fill="white"/>
<path d="M46.4731 62.5236L44.9316 63.0786V31.1387L46.4731 31.262V62.5236Z" fill="white"/>
<path d="M51.7163 60.1163L50.1748 60.5479V34.5273H51.7163V60.1163Z" fill="white"/>
<path d="M41.1099 23.4289L40 22.2574L56.4632 12.7617L57.2032 14.1182L41.1099 23.4289Z" fill="white"/>
<path d="M51.223 23.4943L50.1748 22.3228L61.212 15.9102L62.0135 17.2667L51.223 23.4943Z" fill="white"/>
<path d="M56.5244 26.5151L55.6611 25.2819L61.4572 21.8906L62.1971 23.2471L56.5244 26.5151Z" fill="white"/>
<path d="M62.1978 72.2036L60.6562 72.327V65.3594L62.1978 65.421V72.2036Z" fill="white"/>
<path d="M57.0806 74.4236L55.5391 74.5469V69.2441H57.0806V74.4236Z" fill="white"/>
<path d="M56.8332 74.4859L56.2166 75.8424L40 66.2235L41.5415 65.4219L56.8332 74.4859Z" fill="white"/>
<path d="M57.0787 68.5669L56.4004 69.9235L44.9316 63.0792L46.2265 62.1543L57.0787 68.5669Z" fill="white"/>
<path d="M62.1985 65.4199L61.5202 66.7764L49.7432 59.7472L51.038 58.8223L62.1985 65.4199Z" fill="white"/>
<path d="M62.1957 16.153L61.5174 17.4479L55.4131 13.8099L56.4613 12.7617L62.1957 16.153Z" fill="white"/>
<path d="M61.5188 70.9727L62.1971 72.2059L56.2161 75.8438L55.6611 74.364L61.5188 70.9727Z" fill="white"/>
<path d="M61.5201 65.0508L62.1984 66.284L56.0323 70.0452L55.5391 68.5654L61.5201 65.0508Z" fill="white"/>
<path d="M94.5083 16.4623L92.9668 16.5856V9.67969H94.57L94.5083 16.4623Z" fill="white"/>
<path d="M89.3901 18.7439L87.8486 18.8672V13.5645H89.3901V18.7439Z" fill="white"/>
<path d="M89.2038 18.8072L88.5255 20.1637L76.9951 13.3194L78.29 12.3945L89.2038 18.8072Z" fill="white"/>
<path d="M89.3892 12.8858L88.7109 14.2424L76.8105 7.15146L78.0437 6.22656L89.3892 12.8858Z" fill="white"/>
<path d="M94.571 9.68063L93.8311 11.0372L76.6279 0.801578L78.0461 0L94.571 9.68063Z" fill="white"/>
<path d="M93.8292 15.2285L94.5075 16.5234L88.5265 20.1613L88.0332 18.6815L93.8292 15.2285Z" fill="white"/>
<path d="M93.8296 9.31055L94.5079 10.6054L88.3419 14.3667L87.8486 12.8868L93.8296 9.31055Z" fill="white"/>
<path d="M67.3775 68.3789L68.1175 69.6121L62.3214 73.1267L61.8281 71.6469L67.3775 68.3789Z" fill="white"/>
<path d="M51.4088 58.6387L52.087 59.9335L45.921 63.6948L45.4277 62.1533L51.4088 58.6387Z" fill="white"/>
<path d="M62.1978 35.1451L60.6562 35.2684V28.3008L62.1978 28.3624V35.1451Z" fill="white"/>
<path d="M62.1978 23.2463L60.6562 23.3696V16.0938L62.1978 16.1554V23.2463Z" fill="white"/>
<path d="M51.223 60.6135L50.1748 59.4419L61.212 53.0293L62.0135 54.3242L51.223 60.6135Z" fill="white"/>
<path d="M51.5284 54.2004L50.6035 52.9672L56.2762 49.6992L57.0778 50.9941L51.5284 54.2004Z" fill="white"/>
<path d="M62.3829 48.1558L61.458 46.9226L67.2541 43.5312L68.0556 44.8261L62.3829 48.1558Z" fill="white"/>
<path d="M67.13 51.4233L66.2051 50.1901L72.0011 46.7988L72.8027 48.1553L67.13 51.4233Z" fill="white"/>
<path d="M67.5001 57.4058L66.5752 56.1726L72.3712 52.7812L73.1112 54.1378L67.5001 57.4058Z" fill="white"/>
<path d="M93.5819 48.0347L94.5685 46.8631L88.7108 43.4102L87.9092 44.7667L93.5819 48.0347Z" fill="white"/>
<path d="M88.8348 51.3022L89.7597 50.069L83.9637 46.6777L83.1621 48.0343L88.8348 51.3022Z" fill="white"/>
<path d="M88.5254 57.3433L89.3887 56.1101L83.5926 52.7188L82.791 54.0136L88.5254 57.3433Z" fill="white"/>
<path d="M83.7159 73.0034L82.791 71.8319L88.7104 68.3789L89.4503 69.7354L83.7159 73.0034Z" fill="white"/>
<path d="M56.5244 63.6323L55.6611 62.3991L61.4572 59.0078L62.1971 60.3027L56.5244 63.6323Z" fill="white"/>
<path d="M62.1961 53.2139L61.5178 54.5704L55.2285 50.8091L56.2767 49.6992L62.1961 53.2139Z" fill="white"/>
<path d="M94.4461 34.7744L93.7062 36.1309L87.4785 32.3696L88.4651 31.2598L94.4461 34.7744Z" fill="white"/>
<path d="M94.6317 71.8935L93.8917 73.2501L87.6641 69.4888L88.7123 68.3789L94.6317 71.8935Z" fill="white"/>
<path d="M62.1978 60.3038L60.6562 60.4271V53.2129H62.1978V60.3038Z" fill="white"/>
<path d="M62.9995 78.6768L61.458 78.8618V71.5859H62.9995V78.6768Z" fill="white"/>
<path d="M57.0806 37.365L55.5391 37.4883V32.1855H57.0806V37.365Z" fill="white"/>
<path d="M56.8937 37.428L56.2154 38.7845L44.9316 32.0019V30.2754L56.8937 37.428Z" fill="white"/>
<path d="M57.081 31.5088L56.4027 32.8653L40.8027 23.6163L42.1593 22.6914L57.081 31.5088Z" fill="white"/>
<path d="M78.8462 44.95L77.3047 44.1484V87.9271H78.8462V44.95Z" fill="white"/>
<path d="M83.7778 47.8479L82.2363 47.293V79.2329H83.7778V47.8479Z" fill="white"/>
<path d="M94.3823 35.2093L92.8408 35.0859V41.8069H94.3823V35.2093Z" fill="white"/>
<path d="M94.2612 35.8253L93.5829 34.4688L77.3047 44.1494L78.7845 44.951L94.2612 35.8253Z" fill="white"/>
<path d="M94.3834 41.8057L93.7051 40.4492L82.2363 47.2935L83.5312 48.2184L94.3834 41.8057Z" fill="white"/>
<path d="M94.3237 72.5109L92.7822 72.4492V78.8619H94.3237V72.5109Z" fill="white"/>
<path d="M94.1367 72.9425L93.4585 71.5859L82.2363 78.3685V80.095L94.1367 72.9425Z" fill="white"/>
<path d="M71.8768 72.7568L72.7401 71.5236L67.3757 68.3789L66.6357 69.6738L71.8768 72.7568Z" fill="white"/>
<path d="M71.8154 47.5393L73.3569 46.9844V78.801H71.8154V47.5393Z" fill="white"/>
<path d="M78.8462 8.01588L77.3047 7.46094V38.1677H78.8462V8.01588Z" fill="white"/>
<path d="M83.7778 16.2185L82.2363 15.9102V35.2098H83.7778V16.2185Z" fill="white"/>
<path d="M71.8154 16.2801L73.3569 15.9102V35.0248H71.8154V16.2801Z" fill="white"/>
<path d="M61.2109 34.8987L62.7524 34.7754V41.4963H61.2109V34.8987Z" fill="white"/>
<path d="M61.334 35.5167L62.0122 34.1602L78.7838 44.1491L77.2423 44.9507L61.334 35.5167Z" fill="white"/>
<path d="M89.2048 32.6163L88.4649 31.2598L76.5645 38.289L78.0443 39.1523L89.2048 32.6163Z" fill="white"/>
<path d="M66.8232 32.5577L67.5015 31.2012L79.3402 38.2304L78.0454 39.1553L66.8232 32.5577Z" fill="white"/>
<path d="M61.2109 41.4972L61.8892 40.1406L73.358 46.9849L72.0631 47.9098L61.2109 41.4972Z" fill="white"/>
<path d="M61.6436 72.7608L62.3218 71.4043L73.359 78.0636V79.7901L61.6436 72.7608Z" fill="white"/>
<path d="M94.3217 78.924L93.7051 77.5059L76.502 87.4948L78.0435 88.543L94.3217 78.924Z" fill="white"/>
<path d="M62.1957 28.3641L61.5174 29.7206L49.6787 22.6297L51.0969 21.8281L62.1957 28.3641Z" fill="white"/>
<path d="M61.5188 33.9141L62.1971 35.1473L56.2161 38.7852L55.6611 37.3054L61.5188 33.9141Z" fill="white"/>
<path d="M61.5201 27.9941L62.1984 29.2273L56.0323 32.9886L55.5391 31.5088L61.5201 27.9941Z" fill="white"/>
<path d="M67.4996 31.2012L68.1779 32.4344L62.5051 35.949L61.9502 34.4692L67.4996 31.2012Z" fill="white"/>
<path d="M114.362 65.4199L115.904 66.2214V22.2578H114.362V65.4199Z" fill="white"/>
<path d="M109.489 62.5236L111.031 63.0786V31.1387L109.489 31.2003V62.5236Z" fill="white"/>
<path d="M104.251 60.0546L105.792 60.5479V34.5273H104.251V60.0546Z" fill="white"/>
<path d="M114.856 23.4281L115.904 22.2565L99.5028 12.6992L98.7012 14.0557L114.856 23.4281Z" fill="white"/>
<path d="M104.744 23.4943L105.792 22.3228L94.7547 15.9102L93.9531 17.2667L104.744 23.4943Z" fill="white"/>
<path d="M99.3806 26.5151L100.306 25.2819L94.5095 21.8906L93.7695 23.1855L99.3806 26.5151Z" fill="white"/>
<path d="M93.7051 72.142L95.2466 72.2653V65.3594H93.7051V72.142Z" fill="white"/>
<path d="M98.8848 74.4236L100.426 74.5469V69.2441H98.8848V74.4236Z" fill="white"/>
<path d="M99.1328 74.4243L99.7494 75.8424L115.904 66.2235L114.425 65.4219L99.1328 74.4243Z" fill="white"/>
<path d="M98.8848 68.5669L99.563 69.9235L111.032 63.0792L109.737 62.1543L98.8848 68.5669Z" fill="white"/>
<path d="M93.7051 65.3613L94.445 66.7178L106.222 59.6886L104.927 58.7637L93.7051 65.3613Z" fill="white"/>
<path d="M93.7051 16.0905L94.445 17.447L100.549 13.8091L99.5011 12.6992L93.7051 16.0905Z" fill="white"/>
<path d="M94.4478 70.9082L93.7695 72.2031L99.7506 75.841L100.244 74.3612L94.4478 70.9082Z" fill="white"/>
<path d="M94.4478 64.9902L93.7695 66.2851L99.9355 70.0464L100.429 68.5665L94.4478 64.9902Z" fill="white"/>
<path d="M61.458 16.5873L62.9995 16.7106V9.80469H61.458V16.5873Z" fill="white"/>
<path d="M66.5752 18.8681L68.1784 18.9297V13.627H66.5752V18.8681Z" fill="white"/>
<path d="M66.7598 18.868L67.4997 20.2862L79.1534 13.2569L77.8586 12.332L66.7598 18.868Z" fill="white"/>
<path d="M66.5752 12.9475L67.2535 14.304L79.3388 7.15146L78.044 6.22656L66.5752 12.9475Z" fill="white"/>
<path d="M61.458 9.80395L62.1363 11.1605L79.4628 0.863237L78.0446 0L61.458 9.80395Z" fill="white"/>
<path d="M62.1363 15.3555L61.458 16.5887L67.5007 20.2883L67.994 18.7468L62.1363 15.3555Z" fill="white"/>
<path d="M62.1979 9.43359L61.458 10.7285L67.624 14.4281L68.1173 12.9482L62.1979 9.43359Z" fill="white"/>
<path d="M94.5083 53.6439L92.9668 53.7673V46.8613H94.57L94.5083 53.6439Z" fill="white"/>
<path d="M89.3901 55.9267L87.8486 55.9883V50.6855H89.3901V55.9267Z" fill="white"/>
<path d="M93.8292 52.4121L94.5075 53.6453L88.5265 57.3449L88.0332 55.8651L93.8292 52.4121Z" fill="white"/>
<path d="M93.8296 46.4922L94.5079 47.7871L88.3419 51.4867L87.8486 50.0068L93.8296 46.4922Z" fill="white"/>
<path d="M61.458 53.7045L62.9995 53.8278V46.9219H61.458V53.7045Z" fill="white"/>
<path d="M66.5752 55.988L68.1784 56.1114V50.8086H66.5752V55.988Z" fill="white"/>
<path d="M62.1363 52.4727L61.458 53.7675L67.5007 57.4055L67.994 55.9256L62.1363 52.4727Z" fill="white"/>
<path d="M62.1979 46.5508L61.458 47.8456L67.624 51.6069L68.1173 50.1271L62.1979 46.5508Z" fill="white"/>
<path d="M104.559 58.6387L103.881 59.8719L110.047 63.6331L110.54 62.1533L104.559 58.6387Z" fill="white"/>
<path d="M93.7051 35.0834L95.2466 35.2067V28.3008H93.7051V35.0834Z" fill="white"/>
<path d="M93.7667 23.1847L95.3082 23.308V16.0938H93.7051L93.7667 23.1847Z" fill="white"/>
<path d="M104.744 60.551L105.792 59.4411L94.7547 52.9668L93.9531 54.3233L104.744 60.551Z" fill="white"/>
<path d="M104.434 54.1976L105.359 52.9644L99.6863 49.6348L98.8848 50.9913L104.434 54.1976Z" fill="white"/>
<path d="M99.3806 63.5737L100.306 62.3405L94.5095 58.9492L93.7695 60.3057L99.3806 63.5737Z" fill="white"/>
<path d="M93.7051 53.2111L94.445 54.5059L100.734 50.8063L99.6861 49.6348L93.7051 53.2111Z" fill="white"/>
<path d="M93.7667 60.3038L95.3082 60.4271V53.2129H93.7051L93.7667 60.3038Z" fill="white"/>
<path d="M98.8848 37.365L100.426 37.4883V32.1855H98.8848V37.365Z" fill="white"/>
<path d="M99.0713 37.428L99.7496 38.7845L111.033 32.0019V30.2754L99.0713 37.428Z" fill="white"/>
<path d="M98.8848 31.448L99.563 32.8662L115.163 23.5555L113.745 22.7539L98.8848 31.448Z" fill="white"/>
<path d="M93.7051 28.3016L94.445 29.6581L106.284 22.6289L104.866 21.7656L93.7051 28.3016Z" fill="white"/>
<path d="M94.4478 33.8516L93.7695 35.1464L99.7506 38.7844L100.244 37.3045L94.4478 33.8516Z" fill="white"/>
<path d="M94.4478 27.9336L93.7695 29.2285L99.9355 32.9897L100.429 31.5099L94.4478 27.9336Z" fill="white"/>
<path d="M53.5205 121V108.444H57.7631C58.7482 108.444 59.5534 108.622 60.1787 108.977C60.8082 109.329 61.2741 109.805 61.5766 110.406C61.879 111.007 62.0303 111.677 62.0303 112.417C62.0303 113.156 61.879 113.829 61.5766 114.434C61.2782 115.039 60.8163 115.521 60.191 115.881C59.5656 116.236 58.7645 116.414 57.7876 116.414H54.7467V115.065H57.7386C58.413 115.065 58.9546 114.949 59.3633 114.716C59.772 114.483 60.0684 114.168 60.2523 113.772C60.4403 113.371 60.5343 112.919 60.5343 112.417C60.5343 111.914 60.4403 111.464 60.2523 111.068C60.0684 110.671 59.77 110.361 59.3572 110.136C58.9443 109.907 58.3966 109.793 57.7141 109.793H55.041V121H53.5205ZM64.4796 121V108.444H68.7222C69.7032 108.444 70.5084 108.611 71.1378 108.947C71.7673 109.278 72.2332 109.733 72.5357 110.314C72.8382 110.894 72.9894 111.554 72.9894 112.294C72.9894 113.034 72.8382 113.69 72.5357 114.262C72.2332 114.834 71.7693 115.284 71.144 115.611C70.5186 115.934 69.7195 116.095 68.7468 116.095H65.3134V114.722H68.6977C69.368 114.722 69.9076 114.624 70.3163 114.428C70.7291 114.231 71.0275 113.953 71.2114 113.594C71.3994 113.23 71.4934 112.797 71.4934 112.294C71.4934 111.791 71.3994 111.352 71.2114 110.976C71.0234 110.6 70.723 110.31 70.3102 110.105C69.8973 109.897 69.3517 109.793 68.6732 109.793H66.0001V121H64.4796ZM70.3899 115.36L73.4799 121H71.7141L68.6732 115.36H70.3899ZM77.0435 108.444V121H75.523V108.444H77.0435ZM80.0921 108.444H81.9069L86.174 118.866H86.3212L90.5883 108.444H92.4031V121H90.9807V111.46H90.8581L86.9343 121H85.561L81.6371 111.46H81.5145V121H80.0921V108.444ZM95.4517 121V108.444H103.03V109.793H96.9722V114.035H102.637V115.384H96.9722V119.651H103.128V121H95.4517Z" fill="white"/>
<path d="M24.9093 145.502H21.6511C21.4584 144.565 21.1212 143.742 20.6395 143.032C20.1665 142.323 19.5885 141.727 18.9053 141.245C18.2309 140.755 17.482 140.387 16.6587 140.142C15.8354 139.897 14.9771 139.774 14.0837 139.774C12.4546 139.774 10.9788 140.186 9.65628 141.009C8.3425 141.832 7.29586 143.045 6.51635 144.648C5.7456 146.251 5.36022 148.217 5.36022 150.547C5.36022 152.877 5.7456 154.843 6.51635 156.446C7.29586 158.049 8.3425 159.262 9.65628 160.085C10.9788 160.908 12.4546 161.32 14.0837 161.32C14.9771 161.32 15.8354 161.197 16.6587 160.952C17.482 160.707 18.2309 160.343 18.9053 159.862C19.5885 159.371 20.1665 158.771 20.6395 158.062C21.1212 157.344 21.4584 156.52 21.6511 155.592H24.9093C24.664 156.967 24.2173 158.197 23.5692 159.284C22.9211 160.37 22.1153 161.294 21.1519 162.056C20.1884 162.809 19.1067 163.383 17.9068 163.777C16.7157 164.171 15.4413 164.368 14.0837 164.368C11.789 164.368 9.74825 163.807 7.96151 162.686C6.17477 161.565 4.76902 159.971 3.74427 157.904C2.71952 155.837 2.20715 153.385 2.20715 150.547C2.20715 147.709 2.71952 145.257 3.74427 143.19C4.76902 141.123 6.17477 139.529 7.96151 138.408C9.74825 137.286 11.789 136.726 14.0837 136.726C15.4413 136.726 16.7157 136.923 17.9068 137.317C19.1067 137.711 20.1884 138.289 21.1519 139.051C22.1153 139.805 22.9211 140.724 23.5692 141.81C24.2173 142.888 24.664 144.118 24.9093 145.502ZM31.2778 164H27.862L37.7416 137.094H41.1049L50.9845 164H47.5687L39.5284 141.35H39.3182L31.2778 164ZM32.539 153.49H46.3075V156.38H32.539V153.49ZM55.1755 164V137.094H64.2668C66.3689 137.094 68.0943 137.453 69.4431 138.171C70.7919 138.881 71.7904 139.857 72.4386 141.101C73.0867 142.345 73.4107 143.759 73.4107 145.344C73.4107 146.93 73.0867 148.335 72.4386 149.562C71.7904 150.788 70.7963 151.751 69.4563 152.452C68.1162 153.144 66.4039 153.49 64.3194 153.49H56.9622V150.547H64.2143C65.6507 150.547 66.8068 150.337 67.6827 149.916C68.5673 149.496 69.2067 148.9 69.6008 148.13C70.0037 147.35 70.2051 146.422 70.2051 145.344C70.2051 144.267 70.0037 143.325 69.6008 142.52C69.1979 141.714 68.5541 141.092 67.6695 140.654C66.7849 140.207 65.6157 139.984 64.1617 139.984H58.4337V164H55.1755ZM67.8403 151.913L74.4618 164H70.6781L64.1617 151.913H67.8403ZM78.8399 164V137.094H88.2466C90.1209 137.094 91.6668 137.418 92.8843 138.066C94.1017 138.705 95.0082 139.568 95.6038 140.654C96.1994 141.731 96.4972 142.927 96.4972 144.241C96.4972 145.397 96.2913 146.352 95.8797 147.105C95.4768 147.858 94.9425 148.454 94.2769 148.892C93.62 149.329 92.9062 149.654 92.1354 149.864V150.126C92.9587 150.179 93.7864 150.468 94.6184 150.994C95.4505 151.519 96.1468 152.272 96.7074 153.253C97.2679 154.234 97.5482 155.434 97.5482 156.853C97.5482 158.202 97.2416 159.415 96.6285 160.492C96.0154 161.57 95.0476 162.423 93.7251 163.054C92.4025 163.685 90.6815 164 88.5619 164H78.8399ZM82.0981 161.11H88.5619C90.6902 161.11 92.2011 160.698 93.0945 159.875C93.9966 159.043 94.4477 158.035 94.4477 156.853C94.4477 155.942 94.2156 155.101 93.7514 154.331C93.2871 153.551 92.6259 152.929 91.7675 152.465C90.9092 151.992 89.8932 151.756 88.7196 151.756H82.0981V161.11ZM82.0981 148.918H88.1415C89.1225 148.918 90.0071 148.725 90.7953 148.34C91.5924 147.954 92.223 147.411 92.6872 146.711C93.1601 146.01 93.3966 145.187 93.3966 144.241C93.3966 143.058 92.985 142.055 92.1617 141.232C91.3384 140.4 90.0334 139.984 88.2466 139.984H82.0981V148.918ZM125.604 150.547C125.604 153.385 125.092 155.837 124.067 157.904C123.042 159.971 121.636 161.565 119.85 162.686C118.063 163.807 116.022 164.368 113.727 164.368C111.433 164.368 109.392 163.807 107.605 162.686C105.818 161.565 104.413 159.971 103.388 157.904C102.363 155.837 101.851 153.385 101.851 150.547C101.851 147.709 102.363 145.257 103.388 143.19C104.413 141.123 105.818 139.529 107.605 138.408C109.392 137.286 111.433 136.726 113.727 136.726C116.022 136.726 118.063 137.286 119.85 138.408C121.636 139.529 123.042 141.123 124.067 143.19C125.092 145.257 125.604 147.709 125.604 150.547ZM122.451 150.547C122.451 148.217 122.061 146.251 121.282 144.648C120.511 143.045 119.464 141.832 118.142 141.009C116.828 140.186 115.356 139.774 113.727 139.774C112.098 139.774 110.622 140.186 109.3 141.009C107.986 141.832 106.94 143.045 106.16 144.648C105.389 146.251 105.004 148.217 105.004 150.547C105.004 152.877 105.389 154.843 106.16 156.446C106.94 158.049 107.986 159.262 109.3 160.085C110.622 160.908 112.098 161.32 113.727 161.32C115.356 161.32 116.828 160.908 118.142 160.085C119.464 159.262 120.511 158.049 121.282 156.446C122.061 154.843 122.451 152.877 122.451 150.547ZM152.418 137.094V164H149.265L134.603 142.874H134.341V164H131.082V137.094H134.235L148.95 158.272H149.213V137.094H152.418Z" fill="white"/>
</svg>
