<svg width="53" height="60" viewBox="0 0 53 60" fill="none" xmlns="http://www.w3.org/2000/svg">
<g clip-path="url(#clip0_1493_480)">
<path d="M52.9913 15.0814L41.5202 8.63529L38.0552 10.603V6.57151L26.5366 0L14.9535 6.64252V10.6322L11.4669 8.66035L0 15.1066V44.8976L11.2861 51.4232L14.9535 49.2633V53.441L26.5323 60L37.9002 53.4829H37.9218V49.1839L41.7096 51.4149L53 44.8893V15.0814H52.9913ZM7.07643 23.8546V40.2479L4.49379 41.7268V22.3339L7.07643 23.8546ZM41.0811 24.7445L38.5717 23.2823V20.4331L41.094 21.9203L41.0811 24.7445ZM26.5408 29.6281L16.5374 23.8463L19.1201 22.3172L25.4907 25.9643L26.5237 26.5534L33.8411 22.3757L36.4539 23.8923L26.5408 29.6281ZM11.906 21.9412L14.424 20.454V23.3031L11.906 24.7528V21.9412ZM34.4653 12.1195V9.31208L36.979 7.82482V10.674L34.4653 12.1195ZM33.3848 12.2072L27.1005 8.61858V5.67331L33.3763 9.30371L33.3848 12.2072ZM27.1005 25.0453V9.76744L29.4464 11.1294V23.7L27.1005 25.0453ZM26.0158 9.77163V25.1037L23.2738 23.5162V11.3591L26.0158 9.77163ZM26.0158 5.67748V8.60187L19.6366 12.2532V9.37056L26.0158 5.67748ZM18.5519 9.37474V12.1821L16.0339 10.7492V7.88749L18.5519 9.37474ZM14.4155 15.1609L11.4023 16.8737L8.79388 15.3864L14.424 12.2239L14.4155 15.1609ZM15.4915 15.7499V11.5847L19.1589 13.7446L22.172 11.99V22.9021L19.1589 21.1517L15.4872 23.2406V19.2049L12.4354 17.4669L15.4915 15.7499ZM37.4913 19.1923V23.3031L33.8325 21.1851L30.5224 23.0817V11.756L33.8411 13.6736L37.4913 11.5263V15.7331L40.5388 17.4544L37.4913 19.1923ZM41.5934 16.8569L38.5803 15.1399V12.2156L44.2104 15.3781L41.5934 16.8569ZM33.9186 8.42223L26.5366 4.22364L19.0943 8.48489L16.4557 6.98928L26.5582 1.14051L36.5529 6.91408L33.9186 8.42223ZM7.08072 15.1566L6.74929 15.3447L13.9893 19.5223L11.3464 21.0555L1.54097 15.4366L11.51 9.83428L13.9634 11.2589L7.08072 15.1566ZM11.2861 26.3069L14.7813 24.2473V28.1242L18.0871 30.0125L14.9535 31.788L14.975 31.8131H14.9535V35.7568L11.3464 33.668L8.16113 35.477V24.473L11.2861 26.3069ZM16.5633 48.9751L19.0513 47.5128L22.1934 49.28V52.2797L16.5633 48.9751ZM11.3464 34.8712L13.9592 36.3919L8.14392 39.6756V36.676L11.3464 34.8712ZM22.1762 35.9991L19.6194 37.4488V34.4367L22.1762 32.9954V35.9991ZM18.5519 34.562V37.3736L16.0339 35.9281V33.079L18.5519 34.562ZM14.4155 37.3694V40.2938L11.4239 41.9899L8.8197 40.5027L14.4155 37.3694ZM15.4915 40.8954V36.7679L19.1589 38.9277L22.172 37.2232V48.0853L19.0943 46.3348L15.4915 48.3986V44.3169L12.4784 42.5874L15.4915 40.8954ZM18.9909 33.6221L16.4471 32.1557L19.1502 30.6392L21.6769 32.0554L18.9909 33.6221ZM7.72209 41.0374L13.9936 44.6637L11.3464 46.1635L5.07057 42.5748L7.72209 41.0374ZM11.8973 47.0659L14.4155 45.5786V48.4278L11.8973 49.8775V47.0659ZM23.2696 54.0719V53.4117V31.8424H23.248H23.2696L15.8573 27.5561V24.6609L25.9814 30.4596H26.0028V58.4876L16.0166 52.831V49.8733L23.2696 54.0719ZM27.0962 30.4554L36.8585 24.8614V27.7566L29.4507 32.0554H29.4291V53.1235V54.2932L30.4321 53.7126H30.5095V53.6667L36.8155 49.9944V52.8812L27.1005 58.3749V30.4596L27.0962 30.4554ZM41.6235 34.8545L44.8302 36.655V39.6588L39.0107 36.371L41.6235 34.8545ZM37.4913 44.3003V48.3693L33.9745 46.3348L30.5311 48.2941V36.9934L33.8498 38.8483L37.4998 36.701V40.8788L40.5129 42.5874L37.4913 44.3003ZM36.979 35.8487L34.4567 37.2942V34.4826L36.979 32.9996V35.8487ZM33.3763 37.3986L30.5267 35.782V32.7823L33.3763 34.3824V37.3986ZM30.5267 49.4848L33.9961 47.538L36.4927 48.9876L30.5267 52.4843V49.4848ZM41.5632 41.9649L38.5717 40.2688V37.3444L44.1674 40.4902L41.5632 41.9649ZM34.0091 33.5427L31.4264 32.0637L33.966 30.6142L36.5744 32.0805L34.0091 33.5427ZM38.5717 45.541L41.094 47.0283V49.8356L38.5717 48.3903V45.541ZM41.6277 46.1385L38.9935 44.6261L45.265 40.9957L47.9036 42.5498L41.6277 46.1385ZM48.4804 41.6892L45.8977 40.2144V23.8211L48.4804 22.3172V41.6892ZM44.8302 35.4603L41.6407 33.6471L38.0552 35.736V31.7588L35.0206 30.0083L37.9561 28.3372V24.0761L41.7182 26.2944L44.8474 24.4603L44.8302 35.4603ZM41.6277 21.0305L38.9935 19.5223L46.2378 15.3447L45.902 15.1524L39.015 11.2589L41.4685 9.83428L51.4375 15.4366L41.6277 21.0305ZM1.0804 44.3546V16.3097L10.8126 21.937V24.828L3.42629 20.5292V21.6989V42.7712L10.8126 47.045V49.9443L1.0718 44.3629L1.0804 44.3546ZM42.1916 49.9234V47.024L49.578 42.7462V21.6822V20.5125L42.1916 24.8113V21.9203L51.9238 16.2929V44.342L42.1916 49.9234Z" fill="white"/>
</g>
<defs>
<clipPath id="clip0_1493_480">
<rect width="53" height="60" fill="white"/>
</clipPath>
</defs>
</svg>
